<?xml version="1.0" encoding="UTF-8"?>
<svg id="Layer_1" data-name="Layer 1" xmlns="http://www.w3.org/2000/svg" xmlns:xlink="http://www.w3.org/1999/xlink" viewBox="0 0 796.56 472.23">
  <defs>
    <style>
      .cls-1 {
        clip-path: url(#clippath);
      }

      .cls-2, .cls-3, .cls-4, .cls-5 {
        stroke-width: 0px;
      }

      .cls-2, .cls-6, .cls-7, .cls-8 {
        fill: none;
      }

      .cls-9 {
        fill: #00b0e5;
        stroke: #00b0e5;
      }

      .cls-9, .cls-10, .cls-6, .cls-11, .cls-12, .cls-7, .cls-13 {
        stroke-linecap: round;
        stroke-linejoin: round;
      }

      .cls-14 {
        fill: #2bd6a5;
        stroke: #2bd6a5;
      }

      .cls-14, .cls-8 {
        stroke-miterlimit: 10;
      }

      .cls-3, .cls-10 {
        fill: #0054a6;
      }

      .cls-10, .cls-8 {
        stroke: #0054a6;
      }

      .cls-6, .cls-11, .cls-12, .cls-7 {
        stroke: #002a53;
      }

      .cls-11 {
        fill: #002a53;
      }

      .cls-15 {
        clip-path: url(#clippath-1);
      }

      .cls-4 {
        opacity: .6;
      }

      .cls-4, .cls-12, .cls-5 {
        fill: #fff;
      }

      .cls-7 {
        stroke-width: 3px;
      }

      .cls-13 {
        fill: #efefef;
        stroke: #efefef;
      }
    </style>
    <clipPath id="clippath">
      <path class="cls-2" d="M354.3,158.39h65.08c46.43,0,72.91,10.67,100.94,47.68,6.86,9.06,26.3,29.46,43.64,47.23,15.35,15.72,11.04,41.82-8.55,51.77h0c-11.58,5.88-25.54,4.33-35.53-3.96l-50.52-41.89,3.11,120.97h-171.03v-120.97l-35.78,120.97h-62.53l38.48-136.49c14.23-50.46,60.26-85.31,112.69-85.31Z"/>
    </clipPath>
    <clipPath id="clippath-1">
      <path class="cls-2" d="M491.65,81.89c5.22,20.19-5.62,40.76-24.57,48.16-1.51.6-3.08,1.11-4.7,1.53s-3.24.73-4.85.94c-20.16,2.7-39.61-10.03-44.83-30.22-5.63-21.79,7.46-44.04,29.27-49.68,21.81-5.64,44.04,7.48,49.68,29.27Z"/>
    </clipPath>
  </defs>
  <g>
    <path class="cls-11" d="M396.26,95c0-13.34-7.16-25-17.85-31.36.2-1.11.32-2.24.32-3.41,0-10.47-8.49-18.95-18.95-18.95-6.85,0-12.84,3.65-16.17,9.1-3.27-2.68-7.45-4.29-12-4.29-10.47,0-18.95,8.49-18.95,18.95,0,2.86.65,5.56,1.79,8-4.83,3.05-8.05,8.42-8.05,14.55,0,4.47,1.72,8.53,4.52,11.59-1.71,2.04-2.75,4.66-2.75,7.53,0,6.47,5.25,11.72,11.72,11.72.28,0,.56-.02.84-.04-.54,1.34-.84,2.8-.84,4.34,0,6.47,5.25,11.72,11.72,11.72,3.97,0,7.48-1.98,9.6-5,1.75,8.65,9.4,15.17,18.57,15.17,10.29,0,18.65-8.21,18.93-18.44,10.52-6.4,17.55-17.97,17.55-31.19Z"/>
    <path class="cls-12" d="M203.13,380.19l38.48-136.49c14.23-50.46,60.26-85.31,112.69-85.31h65.08c46.43,0,72.91,10.67,100.94,47.68,6.86,9.06,26.3,29.46,43.64,47.23,15.35,15.72,11.04,41.82-8.55,51.77h0c-11.58,5.88-25.54,4.33-35.53-3.96l-50.52-41.89,3.11,120.97"/>
    <g class="cls-1">
      <g>
        <path class="cls-8" d="M176.63,345.09c11.02-30.17,22.39-60.96,42.72-85.83,10.1-12.36,22.82-23.31,38.18-27.61,21.18-5.93,43.46,1.51,64.92,6.35,19.99,4.51,40.49,6.78,60.99,6.74,12.26-.02,25.68-1.35,34.43-9.94,7.05-6.91,9.55-17.06,12.59-26.46,6.93-21.48,18.63-42.11,36.7-55.63,24.21-18.12,56.69-21.27,86.73-17.78,30.04,3.49,59.1,12.87,89.02,17.31"/>
        <path class="cls-8" d="M215.47,158.73c-18.27,21.73-28.28,50.23-27.62,78.61s11.99,56.38,31.25,77.23c17.99,19.47,46.14,32.89,71.1,23.97,18.09-6.46,30.4-22.85,45.34-34.92,24.3-19.63,61.01-27.34,86.9-9.87,10.28,6.94,17.98,17.11,27.94,24.49,11.29,8.36,25.77,12.87,39.62,10.59,15.21-2.5,28.25-12.82,37.35-25.26,9.1-12.44,14.82-26.98,20.44-41.34"/>
        <path class="cls-8" d="M109.12,273.51c21.54-26.31,43.24-52.79,69.17-74.78,25.94-21.99,56.63-39.48,90.21-44.86,17.92-2.87,37.75-1.76,52.05,9.42,4.98,3.9,9.21,9.13,10.58,15.3,1.06,4.74.37,9.73-1.09,14.37-2.71,8.6-7.93,16.13-12.32,24-4.4,7.87-8.1,16.63-7.28,25.61.81,8.98,7.47,17.95,16.45,18.64,6.77.51,12.96-3.52,18.41-7.57,25.7-19.1,48.13-42.33,73.91-61.32,25.78-18.99,56.34-33.96,88.34-32.85,13.69.48,27.62,4.11,38.44,12.51,10.82,8.4,18.04,22.06,16.55,35.68-1.27,11.62-8.4,21.74-16.12,30.52-17.61,20.04-39.58,36.23-63.93,47.13-21.41,9.59-44.42,15.06-66.26,23.59-21.85,8.54-43.26,20.84-56.32,40.33-4.55,6.78-8.05,15.26-5.42,22.99,2.44,7.21,9.78,11.88,17.27,13.26s15.18.04,22.65-1.41c38.34-7.42,76.12-17.73,112.91-30.82"/>
        <path class="cls-8" d="M384.07,462.14c9.95-38.22,1.26-80.1-19.9-113.44s-54-58.4-90.36-73.8c-16.34-6.92-34.44-12.05-51.7-7.98-15.98,3.77-29.17,14.96-40.22,27.1"/>
      </g>
    </g>
    <polyline class="cls-12" points="301.44 380.19 301.44 259.22 265.66 380.19"/>
    <polygon class="cls-14" points="397.08 187.26 410.51 211.43 418.63 155.9 409.67 153.23 410.73 169.33 397.08 187.26"/>
    <path class="cls-12" d="M366.01,73.21v-40.77l71.97.36c9.5.05,16.98,8.14,16.27,17.62h0s-.62,8.35-.62,8.35l-3.57,56.88c0,23.96-19.73,36.7-35.19,30.79l-8.44,33.79h0c-15.6,12.57-38.86,7.25-47.44-10.85l-2.82-5.95,9.83-40.58v-28.43s-14.68,4.14-14.68-14.99c0-19.12,14.68-6.2,14.68-6.2Z"/>
    <line class="cls-7" x1="406.48" y1="78.07" x2="406.48" y2="86.67"/>
    <line class="cls-7" x1="442.4" y1="78.07" x2="442.4" y2="86.67"/>
    <polygon class="cls-11" points="414.88 146.43 410.28 164.83 381.31 130.22 414.88 146.43"/>
    <line class="cls-6" x1="436.46" y1="66.62" x2="433.56" y2="68.7"/>
    <path class="cls-11" d="M433.56,68.7s6.89-9.38,19.45,0c0,0-10.33-4.22-19.45,0Z"/>
    <path class="cls-11" d="M416.21,69.31s-8.89-12.11-25.09,0c0,0,13.33-5.45,25.09,0Z"/>
    <path class="cls-6" d="M433.56,68.7s-7.73,18.73,2.63,34.97l-13.87-3.34"/>
    <path class="cls-11" d="M453.92,59.77s-10.04-22.1-48.98-22.29c0,0-8.34,25.77-23.64,24.04-15.3-1.73-15.3,11.7-15.3,11.7l-7.84-3.9s-6.28-17.47,7.19-41.66c13.47-24.19,103.65-28.68,88.55,32.11Z"/>
    <path class="cls-6" d="M403.66,110.24s8.78,16.58,25.6,11.4"/>
    <g>
      <path class="cls-14" d="M467.08,130.05l10.39,40.19c.68,2.63-.91,5.33-3.54,6.01-2.63.68-5.33-.91-6.01-3.54l-10.39-40.19c1.61-.21,3.23-.52,4.85-.94s3.18-.93,4.7-1.53Z"/>
      <g class="cls-15">
        <rect class="cls-5" x="383.84" y="33.49" width="121.96" height="105.03"/>
        <g>
          <path class="cls-12" d="M354.09,75.64V26.42l86.89.43c11.47.06,20.5,9.83,19.65,21.27h0s-.75,10.08-.75,10.08l-4.31,68.67c0,28.93-23.82,44.31-42.48,37.17l-10.19,40.79h0c-18.84,15.18-46.91,8.76-57.27-13.1l-3.4-7.19,11.87-48.99v-34.32s-17.72,5-17.72-18.1c0-23.08,17.72-7.49,17.72-7.49Z"/>
          <line class="cls-7" x1="402.95" y1="81.5" x2="402.95" y2="91.88"/>
          <line class="cls-7" x1="446.32" y1="81.5" x2="446.32" y2="91.88"/>
          <polygon class="cls-11" points="413.09 164.03 407.54 186.24 372.56 144.46 413.09 164.03"/>
          <line class="cls-6" x1="439.14" y1="67.67" x2="435.65" y2="70.19"/>
          <path class="cls-11" d="M435.65,70.19s8.32-11.33,23.48,0c0,0-12.47-5.1-23.48,0Z"/>
          <path class="cls-11" d="M414.69,70.92s-10.74-14.62-30.29.01c0,0,16.09-6.58,30.29-.01Z"/>
          <path class="cls-6" d="M435.65,70.19s-9.33,22.61,3.18,42.21l-16.74-4.03"/>
          <path class="cls-11" d="M460.22,59.4s-12.12-26.68-59.13-26.92c0,0-10.07,31.11-28.54,29.02-18.47-2.09-12.99,37.96-12.99,37.96l-5.48-23.83-9.46-4.71s-7.58-21.09,8.68-50.29c16.27-29.2,125.14-34.62,106.91,38.77Z"/>
          <path class="cls-6" d="M399.54,120.33s10.6,20.02,30.91,13.77"/>
        </g>
        <rect class="cls-4" x="383.84" y="33.49" width="121.96" height="105.03"/>
      </g>
      <path class="cls-8" d="M491.65,81.89c5.22,20.19-5.62,40.76-24.57,48.16-1.51.6-3.08,1.11-4.7,1.53s-3.24.73-4.85.94c-20.16,2.7-39.61-10.03-44.83-30.22-5.63-21.79,7.46-44.04,29.27-49.68,21.81-5.64,44.04,7.48,49.68,29.27Z"/>
    </g>
    <path class="cls-12" d="M527.12,208.84l-28.68-49.77-63.39,2.88s9.88,43.18,57.06,39.6l25.74,81.08c3.91,12.32,17.21,18.99,29.42,14.75h0c13.7-4.75,19.63-20.84,12.28-33.34l-32.44-55.22Z"/>
    <polygon class="cls-14" points="359.64 146.21 349.75 159.52 381.7 212.01 397.08 187.84 360.48 153.1 359.64 146.21"/>
    <polygon class="cls-14" points="401.13 196.26 397.08 200.98 391.72 196.26 397.08 187.84 401.13 196.26"/>
    <polyline class="cls-6" points="391.72 196.26 397.08 187.84 401.13 196.26"/>
  </g>
  <path class="cls-13" d="M208.25,118.72c-4.16,0-8.09.97-11.58,2.7-5.47-12.35-17.85-20.97-32.23-20.97-19.47,0-35.25,15.78-35.25,35.25,0,.64.02,1.28.06,1.91-1.16-.24-2.36-.37-3.6-.37-6.01,0-11.31,3.01-14.49,7.6h123.2c0-14.43-11.69-26.12-26.11-26.12Z"/>
  <path class="cls-13" d="M679.63,195.47h-79.47c0-7.38,5.98-13.36,13.37-13.36,2.1,0,4.08.48,5.84,1.33,1.79-12.05,12.18-21.29,24.72-21.29s22.29,8.67,24.54,20.17c6.25,1.12,11,6.58,11,13.15Z"/>
  <path class="cls-13" d="M212.49,261.53h-79.47c0-7.38,5.98-13.36,13.37-13.36,2.1,0,4.08.48,5.84,1.33,1.79-12.05,12.18-21.29,24.72-21.29s22.29,8.67,24.54,20.17c6.25,1.12,11,6.58,11,13.15Z"/>
  <g>
    <rect class="cls-11" x="462.51" y="307.2" width="205.2" height="164.08"/>
    <polygon class="cls-11" points="774.19 471.28 616.69 471.28 616.69 347.19 748.68 347.19 774.19 471.28"/>
    <polygon class="cls-10" points="758.66 426.54 667.71 426.54 667.71 413.15 746.8 413.15 758.66 426.54"/>
    <line class="cls-10" x1="676.03" y1="426.54" x2="676.03" y2="471.28"/>
    <line class="cls-10" x1="708.2" y1="426.54" x2="708.2" y2="471.28"/>
    <line class="cls-10" x1="676.03" y1="448.91" x2="708.2" y2="448.91"/>
    <rect class="cls-10" x="471.94" y="317.24" width="186.62" height="75.7"/>
    <rect class="cls-10" x="508.26" y="397.11" width="150.3" height="71.02"/>
    <line class="cls-11" x1="531.83" y1="317.24" x2="531.83" y2="394.33"/>
    <line class="cls-11" x1="559.01" y1="394.07" x2="559.01" y2="471.16"/>
    <line class="cls-11" x1="659.95" y1="340.54" x2="466.67" y2="340.54"/>
    <line class="cls-11" x1="659.95" y1="366.33" x2="466.67" y2="366.33"/>
    <line class="cls-11" x1="597.55" y1="317.24" x2="597.55" y2="394.33"/>
    <line class="cls-11" x1="613.36" y1="395.17" x2="613.36" y2="470.04"/>
    <circle class="cls-10" cx="703.48" cy="368.54" r="32.44"/>
    <circle class="cls-6" cx="703.48" cy="368.54" r="30.78"/>
  </g>
  <g>
    <rect class="cls-9" x="247.46" y="341.49" width="200.66" height="129.02"/>
    <rect class="cls-9" x="235.55" y="337.76" width="224.47" height="15.34"/>
    <rect class="cls-3" x="235.55" y="369.95" width="156.45" height="32.79"/>
    <polyline class="cls-8" points="405.04 471.28 405.04 420.97 435.65 420.97 435.65 471.28"/>
    <polyline class="cls-8" points="247.46 461.49 388.03 461.49 388.03 399.14"/>
    <line class="cls-8" x1="320.01" y1="461.49" x2="320.01" y2="399.14"/>
    <line class="cls-8" x1="260.49" y1="461.49" x2="260.49" y2="399.14"/>
  </g>
  <g>
    <rect class="cls-10" x="36.6" y="357.17" width="183.42" height="114.12"/>
    <rect class="cls-10" x="30.4" y="351.22" width="195.82" height="10.88"/>
    <rect class="cls-11" x="52.89" y="317.75" width="150.83" height="38.91"/>
    <polyline class="cls-6" points="220.02 378.71 104.5 378.71 104.5 456.35 220.02 456.35"/>
    <line class="cls-6" x1="143.53" y1="457.21" x2="143.53" y2="379.57"/>
    <line class="cls-6" x1="187.19" y1="456.35" x2="187.19" y2="378.71"/>
  </g>
  <line class="cls-12" x1=".5" y1="471.28" x2="796.06" y2="471.28"/>
  <path class="cls-12" d="M41.29,471.73h.83c1.2,0,2.17-.97,2.17-2.17v-26.49h-5.38c-8.38,0-15.17-6.79-15.17-15.17,0-6.25,3.78-11.61,9.18-13.93-.18-.88-.27-1.8-.27-2.73,0-7.58,6.15-13.73,13.73-13.73s13.73,6.15,13.73,13.73c0,.21-.02.41-.03.61,3.95,1.42,6.78,5.19,6.78,9.63,0,.57-.06,1.13-.15,1.68,2.79,1.83,4.63,4.98,4.63,8.56,0,5.66-4.58,10.24-10.24,10.24h-10.31s0,1.12,0,1.12v26.49c0,1.2.97,2.17,2.17,2.17h.83"/>
  <path class="cls-12" d="M467.6,471.73h-.68c-.98,0-1.77-.79-1.77-1.77v-21.59h4.38c6.83,0,12.36-5.53,12.36-12.36,0-5.09-3.08-9.46-7.48-11.36.15-.72.22-1.47.22-2.23,0-6.18-5.01-11.19-11.19-11.19s-11.19,5.01-11.19,11.19c0,.17.02.33.03.5-3.22,1.16-5.52,4.23-5.52,7.85,0,.47.05.92.12,1.37-2.27,1.49-3.77,4.06-3.77,6.98,0,4.61,3.74,8.35,8.35,8.35h8.4s0,.91,0,.91v21.59c0,.98-.79,1.77-1.77,1.77h-.68"/>
</svg>