<svg width="980" height="166" viewBox="0 0 980 166" fill="none" xmlns="http://www.w3.org/2000/svg">
<path d="M71.4498 25.68C64.4098 39.76 58.4098 51.36 58.1998 51.77C57.7898 52.18 45.1498 54.26 30.0298 56.53C14.7098 58.81 1.44977 61.5 0.209773 62.74C-1.24023 64.19 4.76978 71.44 19.4698 85.73L40.7998 106.44L36.0398 135.23C33.5598 150.97 32.3098 164.64 33.1398 165.47C33.9698 166.3 46.5998 160.91 60.8898 153.46L87.1898 139.79L113.49 153.46C127.78 160.91 140.41 166.51 141.24 165.47C142.07 164.64 140.62 150.97 137.93 135.03L133.17 106.04L153.05 87.2C164.86 76.22 173.14 66.7 173.14 64.42C173.14 62.35 172.73 60.49 172.1 60.49C170.65 60.49 130.06 54.48 121.78 53.24C115.36 52 114.32 50.55 102.73 26.11C94.8498 9.52003 89.4698 0.410032 87.3998 0.410032C85.3298 0.410032 79.5298 9.52003 71.4498 25.68Z" fill="#0559B3"/>
<path d="M285.59 2.89004C284.35 4.34004 278.14 15.94 271.71 28.78C261.15 50.11 259.7 51.97 253.48 53.22C249.75 53.84 237.33 55.71 225.94 57.36C214.55 59.22 204.4 61.5 203.16 62.74C201.92 63.98 208.54 72.06 222.21 85.93L243.13 107.05L238.16 135.01C234.85 153.65 233.81 163.38 235.26 164.83C236.71 166.28 245.82 162.55 263.22 153.65L289.11 140.2L315 153.66C331.57 162.15 341.51 166.29 342.75 165.05C344.2 163.6 342.96 153.04 339.85 135.02L334.88 107.06L356 85.94C370.91 70.61 376.3 63.99 374.85 62.54C373.61 61.3 360.15 58.4 344.82 56.12C329.49 53.84 316.86 51.36 316.45 50.53C311.69 39.14 291.6 1.45004 289.94 0.830039C288.7 0.620039 286.63 1.44004 285.59 2.89004Z" fill="#0559B3"/>
<path d="M477.37 25.68C470.33 39.76 464.32 51.36 464.12 51.77C463.71 52.18 451.07 54.26 435.95 56.53C420.62 58.81 407.37 61.5 406.13 62.74C404.68 64.19 410.69 71.44 425.39 85.73L446.93 106.65L442.17 135.23C439.48 150.97 438.03 164.64 439.06 165.47C439.89 166.3 452.52 160.91 466.81 153.46L493.11 139.79L519.41 153.46C533.7 160.91 546.33 166.51 547.16 165.47C547.99 164.64 546.54 150.97 543.85 135.03L539.09 106.04L558.97 87.2C570.77 76.22 579.06 66.7 579.06 64.42C579.06 62.35 578.64 60.49 578.02 60.49C576.57 60.49 535.98 54.69 527.9 53.24C521.69 52.2 520.44 50.34 508.85 26.32C500.77 9.54003 495.39 0.430027 493.32 0.430027C491.24 0.410027 485.44 9.52003 477.37 25.68Z" fill="#0559B3"/>
<path d="M685.91 4.97004C684.25 7.66004 678.45 19.05 673.07 30.44C667.68 41.83 663.13 51.36 662.92 51.56C662.71 51.97 650.29 53.84 634.96 56.12C619.84 58.4 606.38 61.3 605.14 62.54C603.69 63.99 609.08 70.62 623.99 85.94L645.12 107.06L639.94 135.02C636.63 153.66 635.59 163.39 637.04 164.84C638.49 166.29 647.6 162.56 665 153.66L690.89 140.2L716.78 153.66C734.18 162.57 743.29 166.29 744.74 164.84C746.19 163.39 745.16 153.66 741.84 135.02L736.66 107.06L757.79 85.94C771.87 71.65 778.08 63.99 776.64 62.54C775.6 61.5 762.14 58.61 746.82 56.33C730.67 53.84 718.45 50.95 718.03 49.5C714.92 41.01 693.59 1.45003 691.52 0.830033C690.27 0.410033 687.78 2.27004 685.91 4.97004Z" fill="#0559B3"/>
<path d="M877.07 26.3C865.47 50.32 864.23 52.19 858.02 53.22C854.29 53.84 841.66 55.71 829.65 57.36C817.64 59.22 807.08 61.5 805.83 62.74C804.59 63.98 811.01 71.85 825.3 85.73L846.63 106.65L841.87 135.23C839.18 150.97 837.73 164.64 838.76 165.47C839.59 166.3 852.22 160.91 866.51 153.46L892.81 139.79L919.11 153.46C933.4 160.91 946.03 166.3 946.86 165.47C947.9 164.64 946.45 150.97 943.75 135.23L938.99 106.86L960.32 85.74C975.23 71.45 981.24 64.2 979.79 62.75C978.55 61.51 965.29 58.82 949.97 56.54C934.85 54.26 922.01 52.19 921.6 51.78C921.18 51.37 915.39 39.56 908.55 25.69C900.27 9.12004 894.88 0.420029 892.81 0.420029C890.53 0.410029 885.14 9.11003 877.07 26.3Z" fill="#0559B3"/>
</svg>
