<svg width="526" height="107" viewBox="0 0 526 107" fill="none" xmlns="http://www.w3.org/2000/svg">
<path d="M110.329 79.3896C112.556 79.3896 114.393 79.668 115.84 80.2246C117.299 80.7689 118.388 81.6038 119.105 82.7295C119.823 83.8551 120.182 85.29 120.182 87.0342C120.182 88.4691 119.922 89.6689 119.402 90.6338C118.883 91.5863 118.202 92.3594 117.361 92.9531C116.52 93.5469 115.623 94.0046 114.671 94.3262L122.111 106.517H118.438L111.795 95.1982H106.154V106.517H103V79.3896H110.329ZM110.144 82.1172H106.154V92.5264H110.459C112.673 92.5264 114.3 92.0749 115.339 91.1719C116.39 90.2689 116.916 88.9391 116.916 87.1826C116.916 85.3395 116.359 84.0345 115.246 83.2676C114.145 82.5007 112.444 82.1172 110.144 82.1172Z" fill="white"/>
<path d="M141.557 106.517H126.453V79.3896H141.557V82.1729H129.607V90.9492H140.87V93.6953H129.607V103.733H141.557V106.517Z" fill="white"/>
<path d="M164.583 106.517L161.243 97.9072H150.37L147.049 106.517H143.857L154.471 79.2783H157.31L167.849 106.517H164.583ZM160.297 95.1055L157.124 86.5518C157.05 86.3291 156.926 85.9642 156.753 85.457C156.592 84.9499 156.425 84.4242 156.252 83.8799C156.079 83.3356 155.937 82.8965 155.825 82.5625C155.701 83.0697 155.565 83.5768 155.417 84.084C155.281 84.5788 155.145 85.0426 155.009 85.4756C154.873 85.8962 154.755 86.2549 154.656 86.5518L151.428 95.1055H160.297Z" fill="white"/>
<path d="M171.615 106.517V79.3896H174.77V103.696H186.812V106.517H171.615Z" fill="white"/>
<path d="M223.314 106.517H208.211V79.3896H223.314V82.1729H211.365V90.9492H222.628V93.6953H211.365V103.733H223.314V106.517Z" fill="white"/>
<path d="M243.134 99.2988C243.134 100.907 242.732 102.28 241.928 103.418C241.136 104.544 240.023 105.403 238.588 105.997C237.153 106.591 235.465 106.888 233.522 106.888C232.496 106.888 231.525 106.838 230.609 106.739C229.694 106.64 228.853 106.498 228.086 106.312C227.319 106.127 226.645 105.898 226.063 105.626V102.602C226.991 102.985 228.123 103.344 229.459 103.678C230.795 103.999 232.193 104.16 233.652 104.16C235.013 104.16 236.163 103.981 237.104 103.622C238.044 103.251 238.755 102.725 239.237 102.045C239.732 101.352 239.979 100.523 239.979 99.5586C239.979 98.6309 239.775 97.8577 239.367 97.2393C238.959 96.6084 238.279 96.0394 237.326 95.5322C236.386 95.0127 235.1 94.4622 233.467 93.8809C232.316 93.4727 231.302 93.0273 230.424 92.5449C229.546 92.0501 228.81 91.4935 228.216 90.875C227.622 90.2565 227.171 89.5391 226.861 88.7227C226.564 87.9062 226.416 86.9723 226.416 85.9209C226.416 84.4736 226.781 83.2367 227.511 82.21C228.253 81.1709 229.273 80.3792 230.572 79.835C231.883 79.2783 233.386 79 235.081 79C236.528 79 237.864 79.1361 239.089 79.4082C240.326 79.6803 241.458 80.0452 242.484 80.5029L241.501 83.2119C240.524 82.8037 239.485 82.4635 238.384 82.1914C237.295 81.9193 236.17 81.7832 235.007 81.7832C233.844 81.7832 232.861 81.9564 232.057 82.3027C231.265 82.6367 230.659 83.113 230.238 83.7314C229.818 84.3499 229.607 85.0859 229.607 85.9395C229.607 86.8919 229.805 87.6836 230.201 88.3145C230.609 88.9453 231.253 89.5081 232.131 90.0029C233.021 90.4854 234.197 90.9925 235.656 91.5244C237.252 92.1058 238.606 92.7243 239.72 93.3799C240.833 94.0231 241.68 94.8148 242.262 95.7549C242.843 96.6826 243.134 97.8639 243.134 99.2988Z" fill="white"/>
<path d="M255.513 106.517H252.34V82.1729H243.805V79.3896H264.011V82.1729H255.513V106.517Z" fill="white"/>
<path d="M283.626 106.517L280.286 97.9072H269.413L266.092 106.517H262.9L273.514 79.2783H276.353L286.892 106.517H283.626ZM279.34 95.1055L276.167 86.5518C276.093 86.3291 275.969 85.9642 275.796 85.457C275.635 84.9499 275.468 84.4242 275.295 83.8799C275.122 83.3356 274.979 82.8965 274.868 82.5625C274.744 83.0697 274.608 83.5768 274.46 84.084C274.324 84.5788 274.188 85.0426 274.052 85.4756C273.916 85.8962 273.798 86.2549 273.699 86.5518L270.471 95.1055H279.34Z" fill="white"/>
<path d="M297.489 106.517H294.316V82.1729H285.781V79.3896H305.987V82.1729H297.489V106.517Z" fill="white"/>
<path d="M323.691 106.517H308.588V79.3896H323.691V82.1729H311.742V90.9492H323.005V93.6953H311.742V103.733H323.691V106.517Z" fill="white"/>
<path d="M349.505 106.517L340.395 82.5068H340.246C340.296 83.014 340.339 83.6325 340.376 84.3623C340.413 85.0921 340.444 85.89 340.469 86.7559C340.493 87.6094 340.506 88.4814 340.506 89.3721V106.517H337.574V79.3896H342.25L350.841 101.952H350.971L359.691 79.3896H364.33V106.517H361.213V89.1494C361.213 88.3454 361.225 87.5413 361.25 86.7373C361.275 85.9209 361.306 85.154 361.343 84.4365C361.38 83.7067 361.417 83.0758 361.454 82.5439H361.306L352.084 106.517H349.505Z" fill="white"/>
<path d="M390.267 106.517L386.927 97.9072H376.054L372.732 106.517H369.541L380.154 79.2783H382.993L393.532 106.517H390.267ZM385.98 95.1055L382.808 86.5518C382.733 86.3291 382.61 85.9642 382.437 85.457C382.276 84.9499 382.109 84.4242 381.936 83.8799C381.762 83.3356 381.62 82.8965 381.509 82.5625C381.385 83.0697 381.249 83.5768 381.101 84.084C380.965 84.5788 380.828 85.0426 380.692 85.4756C380.556 85.8962 380.439 86.2549 380.34 86.5518L377.111 95.1055H385.98Z" fill="white"/>
<path d="M420.007 106.517H416.37L401.582 83.7314H401.434C401.471 84.3376 401.514 85.0303 401.563 85.8096C401.613 86.5765 401.65 87.3991 401.675 88.2773C401.712 89.1432 401.73 90.0277 401.73 90.9307V106.517H398.799V79.3896H402.417L417.149 102.101H417.279C417.255 101.668 417.224 101.055 417.187 100.264C417.149 99.4596 417.112 98.5999 417.075 97.6846C417.05 96.7568 417.038 95.8971 417.038 95.1055V79.3896H420.007V106.517Z" fill="white"/>
<path d="M445.925 106.517L442.585 97.9072H431.712L428.391 106.517H425.199L435.812 79.2783H438.651L449.19 106.517H445.925ZM441.639 95.1055L438.466 86.5518C438.392 86.3291 438.268 85.9642 438.095 85.457C437.934 84.9499 437.767 84.4242 437.594 83.8799C437.421 83.3356 437.278 82.8965 437.167 82.5625C437.043 83.0697 436.907 83.5768 436.759 84.084C436.623 84.5788 436.487 85.0426 436.351 85.4756C436.215 85.8962 436.097 86.2549 435.998 86.5518L432.77 95.1055H441.639Z" fill="white"/>
<path d="M466.054 92.3037H475.535V105.459C474.113 105.941 472.647 106.3 471.138 106.535C469.641 106.77 467.965 106.888 466.109 106.888C463.289 106.888 460.908 106.325 458.966 105.199C457.036 104.074 455.57 102.472 454.568 100.394C453.566 98.3031 453.065 95.8229 453.065 92.9531C453.065 90.1452 453.616 87.696 454.717 85.6055C455.83 83.515 457.432 81.8945 459.522 80.7441C461.625 79.5814 464.149 79 467.093 79C468.602 79 470.031 79.1423 471.379 79.4268C472.74 79.6989 474.001 80.0885 475.164 80.5957L473.958 83.3418C472.956 82.9089 471.849 82.5378 470.637 82.2285C469.437 81.9193 468.194 81.7646 466.907 81.7646C464.693 81.7646 462.794 82.2223 461.211 83.1377C459.64 84.0531 458.434 85.3457 457.593 87.0156C456.764 88.6855 456.35 90.6647 456.35 92.9531C456.35 95.2168 456.715 97.1898 457.444 98.8721C458.174 100.542 459.312 101.841 460.858 102.769C462.405 103.696 464.396 104.16 466.833 104.16C468.058 104.16 469.109 104.092 469.987 103.956C470.866 103.808 471.663 103.634 472.381 103.437V95.124H466.054V92.3037Z" fill="white"/>
<path d="M498.707 106.517H483.604V79.3896H498.707V82.1729H486.758V90.9492H498.021V93.6953H486.758V103.733H498.707V106.517Z" fill="white"/>
<path d="M513.548 79.3896C515.774 79.3896 517.611 79.668 519.059 80.2246C520.518 80.7689 521.607 81.6038 522.324 82.7295C523.042 83.8551 523.4 85.29 523.4 87.0342C523.4 88.4691 523.141 89.6689 522.621 90.6338C522.102 91.5863 521.421 92.3594 520.58 92.9531C519.739 93.5469 518.842 94.0046 517.89 94.3262L525.33 106.517H521.656L515.014 95.1982H509.373V106.517H506.219V79.3896H513.548ZM513.362 82.1172H509.373V92.5264H513.678C515.892 92.5264 517.519 92.0749 518.558 91.1719C519.609 90.2689 520.135 88.9391 520.135 87.1826C520.135 85.3395 519.578 84.0345 518.465 83.2676C517.364 82.5007 515.663 82.1172 513.362 82.1172Z" fill="white"/>
<path d="M250.81 41.1187C253.171 36.9601 255.603 33.4934 259.25 33.4934C260.442 33.4934 260.869 33.8334 261.874 34.2307V38.4214H259.461C256.267 38.4214 253.818 39.6321 250.795 43.5281V55.5361C250.795 58.0147 251.802 58.1614 255.829 58.5614V60.5641H241.726V58.5614C243.742 58.2747 245.759 58.0147 245.759 55.7281V38.9801L241.726 37.2281V36.0281L249.318 33.3841H251.065L250.81 41.1187ZM230.649 54.3307V46.9307L222.047 49.6814C220.293 50.2187 219.362 51.2267 219.362 53.1321C219.362 55.9774 221.067 57.4187 223.813 57.4187C226.762 57.4187 228.631 56.1241 230.649 54.3307M235.682 54.1214C235.682 56.3201 236.651 57.5121 238.165 57.5121C238.49 57.5121 239.195 57.4547 239.822 57.3507C239.99 57.8681 240.345 58.6761 240.474 59.0507C238.898 60.4281 237.435 61.0161 235.758 61.0161C233.167 61.0161 231.873 59.1974 231.062 56.4827C229.217 58.5107 226.371 61.0161 221.721 61.0161C216.778 61.0161 214.127 58.0614 214.127 54.1921C214.127 49.5267 217.298 48.4281 221.151 47.3374L230.649 44.4787V43.4361C230.649 39.3267 228.893 36.1374 224.583 36.1374C221.786 36.1374 220.518 37.2907 220.518 39.8294C220.518 40.3401 220.645 41.2294 220.797 42.2307L216.654 42.7267C215.959 42.0334 215.571 41.2294 215.571 40.0387C215.571 35.9254 219.957 33.5307 225.547 33.5307C231.698 33.5307 235.682 36.0854 235.682 43.1374V54.1214ZM204.461 34.3921H212.517V36.4081H204.461V52.2574C204.461 55.8467 205.902 57.4467 208.961 57.4467C210.106 57.4467 211.17 57.2601 212.305 56.8081C212.529 57.3921 212.762 57.8841 212.991 58.3814C211.666 59.6547 209.633 61.0161 206.599 61.0161C202.813 61.0161 199.423 59.0627 199.423 53.9307V36.4081H195.395V35.0347C198.418 33.4334 200.205 31.3694 202.763 28.3481H204.461V34.3921ZM167.633 57.7307L167.242 48.4934H169.087C170.623 53.5334 174.033 58.1681 179.931 58.1681C185.427 58.1681 189.115 55.5401 189.115 51.2321C189.115 47.4307 186.125 45.7547 181.977 44.0974L176.531 41.9387C171.73 40.0534 167.633 37.8361 167.633 31.5374C167.633 26.0974 173.257 21.0454 181.01 21.0454C185.518 21.0454 189.351 22.3374 192.373 24.3387V32.3787H190.482C189.182 27.3427 186.257 23.7574 180.435 23.7574C175.789 23.7574 172.343 26.3174 172.343 30.3187C172.343 33.6201 174.63 35.1761 178.482 36.6787L184.326 38.9961C189.873 41.2001 193.873 43.4227 193.873 49.8614C193.873 57.0174 187.246 61.0614 179.133 61.0614C174.349 61.0614 170.13 59.7587 167.633 57.7307M158.823 48.5041C158.823 42.0427 155.317 36.6454 149.31 36.6454C144.295 36.6454 141.809 40.6347 141.809 46.0934C141.809 52.5534 145.306 57.9334 151.309 57.9334C156.313 57.9334 158.823 53.9561 158.823 48.5041M136.49 47.7987C136.49 39.0347 143.091 33.5307 150.81 33.5307C158.719 33.5307 164.126 39.0907 164.126 46.7961C164.126 55.5641 157.517 61.0521 149.811 61.0521C141.895 61.0521 136.49 55.5174 136.49 47.7987M131.363 48.4934H133.349L132.306 57.9721C128.318 59.7227 123.973 60.9961 117.798 60.9961C105.359 60.9961 98.042 51.8694 98.042 41.7734C98.042 29.0227 107.135 21.0374 118.273 21.0374C125.027 21.0374 129.053 23.1867 131.395 24.6347L131.681 33.3841H129.793C127.537 26.3334 123.687 24.3841 117.947 24.3841C107.942 24.3841 104.31 31.3587 104.31 39.8574C104.31 49.1107 108.717 57.9907 118.857 57.9907C126.261 57.9907 129.118 54.5387 131.363 48.4934M279.289 39.2694H278.925L276.667 35.4854V40.5467H276.118V34.1494H276.483L279.109 38.5454L281.729 34.1494H282.098V40.5467H281.547V35.4854L279.289 39.2694ZM275.198 34.1494V34.6707H273.369V40.5467H272.819V34.6707H270.993V34.1494H275.198Z" fill="white"/>
<path d="M9.11154 59.2332L1.01554 34.2666C0.854206 33.7719 1.05554 33.1132 1.47154 32.7879L13.8462 23.0492C14.2635 22.7372 14.8622 22.8186 15.1729 23.2412L24.3755 35.9359C24.6849 36.3586 24.6929 37.0386 24.3982 37.4812L9.96087 59.3532C9.66754 59.7826 9.29287 59.7239 9.11154 59.2332Z" fill="white"/>
<path d="M50.0712 74.2353L33.7459 53.762C33.4205 53.35 32.7485 53.1473 32.2632 53.3033L17.3339 58.1207C16.8312 58.282 16.5712 58.814 16.7485 59.326L22.1672 74.106C22.3619 74.59 22.9272 74.9807 23.4325 74.9807L49.7032 75.0087C50.2232 74.9967 50.3992 74.6527 50.0712 74.2353Z" fill="white"/>
<path d="M76.6428 40.6811L52.0881 49.8985C51.6095 50.0825 51.2161 50.6371 51.2161 51.1545L51.1895 66.8265C51.1935 67.3478 51.6308 67.7691 52.1521 67.7585L67.9028 67.1598C68.4201 67.1438 68.9655 66.7198 69.1175 66.2331L77.2481 41.2731C77.4121 40.7745 77.1375 40.4931 76.6428 40.6811Z" fill="white"/>
<path d="M52.9313 5.04967L54.1046 31.2457C54.1233 31.7683 54.5339 32.3137 55.0299 32.4763L69.9419 37.3523C70.4526 37.4977 70.9833 37.203 71.1259 36.7137L75.4259 21.5497C75.5686 21.0603 75.3379 20.399 74.9286 20.099L53.6766 4.651C53.2473 4.34967 52.9086 4.52833 52.9313 5.04967Z" fill="white"/>
<path d="M11.6998 16.5997L36.9772 23.5651C37.4838 23.6984 38.1358 23.4824 38.4412 23.0704L47.6785 10.3837C47.9772 9.95173 47.8718 9.36773 47.4252 9.06773L34.3478 0.301065C33.9212 0.0117316 33.2385 0.0237318 32.8132 0.333065L11.5532 15.7584C11.1305 16.0664 11.1972 16.4517 11.6998 16.5997Z" fill="white"/>
</svg>
