<svg width="526" height="108" viewBox="0 0 526 108" fill="none" xmlns="http://www.w3.org/2000/svg">
<path d="M110.04 79.873C112.267 79.873 114.104 80.1514 115.551 80.708C117.01 81.2523 118.099 82.0872 118.816 83.2129C119.534 84.3385 119.893 85.7734 119.893 87.5176C119.893 88.9525 119.633 90.1523 119.113 91.1172C118.594 92.0697 117.913 92.8428 117.072 93.4365C116.231 94.0303 115.334 94.488 114.382 94.8096L121.822 107H118.148L111.506 95.6816H105.865V107H102.711V79.873H110.04ZM109.854 82.6006H105.865V93.0098H110.17C112.384 93.0098 114.011 92.5583 115.05 91.6553C116.101 90.7523 116.627 89.4225 116.627 87.666C116.627 85.8229 116.07 84.5179 114.957 83.751C113.856 82.984 112.155 82.6006 109.854 82.6006Z" fill="black"/>
<path d="M141.268 107H126.164V79.873H141.268V82.6562H129.318V91.4326H140.581V94.1787H129.318V104.217H141.268V107Z" fill="black"/>
<path d="M164.294 107L160.954 98.3906H150.081L146.76 107H143.568L154.182 79.7617H157.021L167.56 107H164.294ZM160.008 95.5889L156.835 87.0352C156.761 86.8125 156.637 86.4476 156.464 85.9404C156.303 85.4333 156.136 84.9076 155.963 84.3633C155.79 83.819 155.647 83.3799 155.536 83.0459C155.412 83.5531 155.276 84.0602 155.128 84.5674C154.992 85.0622 154.856 85.526 154.72 85.959C154.584 86.3796 154.466 86.7383 154.367 87.0352L151.139 95.5889H160.008Z" fill="black"/>
<path d="M171.326 107V79.873H174.48V104.18H186.522V107H171.326Z" fill="black"/>
<path d="M223.025 107H207.922V79.873H223.025V82.6562H211.076V91.4326H222.339V94.1787H211.076V104.217H223.025V107Z" fill="black"/>
<path d="M242.845 99.7822C242.845 101.39 242.443 102.763 241.639 103.901C240.847 105.027 239.734 105.887 238.299 106.48C236.864 107.074 235.175 107.371 233.233 107.371C232.207 107.371 231.236 107.322 230.32 107.223C229.405 107.124 228.564 106.981 227.797 106.796C227.03 106.61 226.356 106.382 225.774 106.109V103.085C226.702 103.468 227.834 103.827 229.17 104.161C230.506 104.483 231.904 104.644 233.363 104.644C234.724 104.644 235.874 104.464 236.814 104.105C237.755 103.734 238.466 103.209 238.948 102.528C239.443 101.836 239.69 101.007 239.69 100.042C239.69 99.1143 239.486 98.3411 239.078 97.7227C238.67 97.0918 237.99 96.5228 237.037 96.0156C236.097 95.4961 234.811 94.9456 233.178 94.3643C232.027 93.9561 231.013 93.5107 230.135 93.0283C229.257 92.5335 228.521 91.9769 227.927 91.3584C227.333 90.7399 226.882 90.0225 226.572 89.2061C226.275 88.3896 226.127 87.4557 226.127 86.4043C226.127 84.957 226.492 83.7201 227.222 82.6934C227.964 81.6543 228.984 80.8626 230.283 80.3184C231.594 79.7617 233.097 79.4834 234.792 79.4834C236.239 79.4834 237.575 79.6195 238.8 79.8916C240.037 80.1637 241.169 80.5286 242.195 80.9863L241.212 83.6953C240.235 83.2871 239.196 82.9469 238.095 82.6748C237.006 82.4027 235.881 82.2666 234.718 82.2666C233.555 82.2666 232.572 82.4398 231.768 82.7861C230.976 83.1201 230.37 83.5964 229.949 84.2148C229.529 84.8333 229.318 85.5693 229.318 86.4229C229.318 87.3753 229.516 88.167 229.912 88.7979C230.32 89.4287 230.964 89.9915 231.842 90.4863C232.732 90.9688 233.908 91.4759 235.367 92.0078C236.963 92.5892 238.317 93.2077 239.431 93.8633C240.544 94.5065 241.391 95.2982 241.973 96.2383C242.554 97.166 242.845 98.3473 242.845 99.7822Z" fill="black"/>
<path d="M255.224 107H252.051V82.6562H243.516V79.873H263.722V82.6562H255.224V107Z" fill="black"/>
<path d="M283.337 107L279.997 98.3906H269.124L265.803 107H262.611L273.225 79.7617H276.063L286.603 107H283.337ZM279.051 95.5889L275.878 87.0352C275.804 86.8125 275.68 86.4476 275.507 85.9404C275.346 85.4333 275.179 84.9076 275.006 84.3633C274.833 83.819 274.69 83.3799 274.579 83.0459C274.455 83.5531 274.319 84.0602 274.171 84.5674C274.035 85.0622 273.899 85.526 273.763 85.959C273.627 86.3796 273.509 86.7383 273.41 87.0352L270.182 95.5889H279.051Z" fill="black"/>
<path d="M297.2 107H294.027V82.6562H285.492V79.873H305.698V82.6562H297.2V107Z" fill="black"/>
<path d="M323.402 107H308.299V79.873H323.402V82.6562H311.453V91.4326H322.716V94.1787H311.453V104.217H323.402V107Z" fill="black"/>
<path d="M349.216 107L340.105 82.9902H339.957C340.007 83.4974 340.05 84.1159 340.087 84.8457C340.124 85.5755 340.155 86.3734 340.18 87.2393C340.204 88.0928 340.217 88.9648 340.217 89.8555V107H337.285V79.873H341.961L350.552 102.436H350.682L359.402 79.873H364.041V107H360.924V89.6328C360.924 88.8288 360.936 88.0247 360.961 87.2207C360.986 86.4043 361.017 85.6374 361.054 84.9199C361.091 84.1901 361.128 83.5592 361.165 83.0273H361.017L351.795 107H349.216Z" fill="black"/>
<path d="M389.978 107L386.638 98.3906H375.765L372.443 107H369.252L379.865 79.7617H382.704L393.243 107H389.978ZM385.691 95.5889L382.519 87.0352C382.444 86.8125 382.321 86.4476 382.147 85.9404C381.987 85.4333 381.82 84.9076 381.646 84.3633C381.473 83.819 381.331 83.3799 381.22 83.0459C381.096 83.5531 380.96 84.0602 380.812 84.5674C380.675 85.0622 380.539 85.526 380.403 85.959C380.267 86.3796 380.15 86.7383 380.051 87.0352L376.822 95.5889H385.691Z" fill="black"/>
<path d="M419.718 107H416.081L401.293 84.2148H401.145C401.182 84.821 401.225 85.5137 401.274 86.293C401.324 87.0599 401.361 87.8825 401.386 88.7607C401.423 89.6266 401.441 90.5111 401.441 91.4141V107H398.51V79.873H402.128L416.86 102.584H416.99C416.965 102.151 416.935 101.539 416.897 100.747C416.86 99.943 416.823 99.0833 416.786 98.168C416.761 97.2402 416.749 96.3805 416.749 95.5889V79.873H419.718V107Z" fill="black"/>
<path d="M445.636 107L442.296 98.3906H431.423L428.102 107H424.91L435.523 79.7617H438.362L448.901 107H445.636ZM441.35 95.5889L438.177 87.0352C438.103 86.8125 437.979 86.4476 437.806 85.9404C437.645 85.4333 437.478 84.9076 437.305 84.3633C437.132 83.819 436.989 83.3799 436.878 83.0459C436.754 83.5531 436.618 84.0602 436.47 84.5674C436.334 85.0622 436.198 85.526 436.062 85.959C435.925 86.3796 435.808 86.7383 435.709 87.0352L432.48 95.5889H441.35Z" fill="black"/>
<path d="M465.765 92.7871H475.246V105.942C473.824 106.425 472.358 106.784 470.849 107.019C469.352 107.254 467.676 107.371 465.82 107.371C463 107.371 460.619 106.808 458.677 105.683C456.747 104.557 455.281 102.955 454.279 100.877C453.277 98.7865 452.776 96.3063 452.776 93.4365C452.776 90.6286 453.327 88.1794 454.428 86.0889C455.541 83.9984 457.143 82.3779 459.233 81.2275C461.336 80.0648 463.86 79.4834 466.804 79.4834C468.313 79.4834 469.742 79.6257 471.09 79.9102C472.451 80.1823 473.712 80.5719 474.875 81.0791L473.669 83.8252C472.667 83.3923 471.56 83.0212 470.348 82.7119C469.148 82.4027 467.905 82.248 466.618 82.248C464.404 82.248 462.505 82.7057 460.922 83.6211C459.351 84.5365 458.145 85.8291 457.304 87.499C456.475 89.1689 456.061 91.1481 456.061 93.4365C456.061 95.7002 456.425 97.6732 457.155 99.3555C457.885 101.025 459.023 102.324 460.569 103.252C462.116 104.18 464.107 104.644 466.544 104.644C467.769 104.644 468.82 104.576 469.698 104.439C470.576 104.291 471.374 104.118 472.092 103.92V95.6074H465.765V92.7871Z" fill="black"/>
<path d="M498.418 107H483.314V79.873H498.418V82.6562H486.469V91.4326H497.731V94.1787H486.469V104.217H498.418V107Z" fill="black"/>
<path d="M513.259 79.873C515.485 79.873 517.322 80.1514 518.77 80.708C520.229 81.2523 521.318 82.0872 522.035 83.2129C522.753 84.3385 523.111 85.7734 523.111 87.5176C523.111 88.9525 522.852 90.1523 522.332 91.1172C521.812 92.0697 521.132 92.8428 520.291 93.4365C519.45 94.0303 518.553 94.488 517.601 94.8096L525.041 107H521.367L514.725 95.6816H509.084V107H505.93V79.873H513.259ZM513.073 82.6006H509.084V93.0098H513.389C515.603 93.0098 517.229 92.5583 518.269 91.6553C519.32 90.7523 519.846 89.4225 519.846 87.666C519.846 85.8229 519.289 84.5179 518.176 83.751C517.075 82.984 515.374 82.6006 513.073 82.6006Z" fill="black"/>
<path d="M250.81 41.0269C253.171 36.8683 255.603 33.4016 259.25 33.4016C260.442 33.4016 260.869 33.7416 261.874 34.1376V38.3296H259.461C256.267 38.3296 253.818 39.5403 250.795 43.4363V55.4443C250.795 57.9229 251.802 58.0696 255.829 58.4696V60.4723H241.726V58.4696C243.742 58.1829 245.759 57.9229 245.759 55.6363V38.8883L241.726 37.1363V35.9363L249.318 33.2936H251.065L250.81 41.0269ZM230.649 54.2389V46.8389L222.047 49.5896C220.293 50.1269 219.362 51.1349 219.362 53.0403C219.362 55.8856 221.067 57.3269 223.813 57.3269C226.762 57.3269 228.631 56.0323 230.649 54.2389M235.682 54.0296C235.682 56.2283 236.651 57.4203 238.165 57.4203C238.49 57.4203 239.195 57.3629 239.822 57.2589C239.99 57.7763 240.345 58.5843 240.474 58.9589C238.898 60.3363 237.435 60.9243 235.758 60.9243C233.167 60.9243 231.873 59.1056 231.062 56.3909C229.217 58.4189 226.371 60.9243 221.721 60.9243C216.778 60.9243 214.127 57.9696 214.127 54.1003C214.127 49.4349 217.298 48.3363 221.151 47.2456L230.649 44.3869V43.3443C230.649 39.2349 228.893 36.0443 224.583 36.0443C221.786 36.0443 220.518 37.1989 220.518 39.7376C220.518 40.2483 220.645 41.1376 220.797 42.1389L216.654 42.6349C215.959 41.9416 215.571 41.1376 215.571 39.9469C215.571 35.8336 219.957 33.4389 225.547 33.4389C231.698 33.4389 235.682 35.9936 235.682 43.0456V54.0296ZM204.461 34.3016H212.517V36.3163H204.461V52.1656C204.461 55.7549 205.902 57.3549 208.961 57.3549C210.106 57.3549 211.17 57.1683 212.305 56.7163C212.529 57.3003 212.762 57.7923 212.991 58.2896C211.666 59.5629 209.633 60.9243 206.599 60.9243C202.813 60.9243 199.423 58.9709 199.423 53.8389V36.3163H195.395V34.9443C198.418 33.3416 200.205 31.2776 202.763 28.2563H204.461V34.3016ZM167.633 57.6389L167.242 48.4016H169.087C170.623 53.4416 174.033 58.0763 179.931 58.0763C185.427 58.0763 189.115 55.4483 189.115 51.1403C189.115 47.3389 186.125 45.6629 181.977 44.0056L176.531 41.8469C171.73 39.9616 167.633 37.7443 167.633 31.4456C167.633 26.0069 173.257 20.9549 181.01 20.9549C185.518 20.9549 189.351 22.2456 192.373 24.2469V32.2869H190.482C189.182 27.2496 186.257 23.6656 180.435 23.6656C175.789 23.6656 172.343 26.2256 172.343 30.2269C172.343 33.5283 174.63 35.0829 178.482 36.5869L184.326 38.9043C189.873 41.1083 193.873 43.3309 193.873 49.7696C193.873 56.9256 187.246 60.9696 179.133 60.9696C174.349 60.9696 170.13 59.6669 167.633 57.6389M158.823 48.4123C158.823 41.9509 155.317 36.5536 149.31 36.5536C144.295 36.5536 141.809 40.5429 141.809 46.0016C141.809 52.4616 145.306 57.8416 151.309 57.8416C156.313 57.8416 158.823 53.8643 158.823 48.4123M136.49 47.7069C136.49 38.9429 143.091 33.4389 150.81 33.4389C158.719 33.4389 164.126 38.9989 164.126 46.7043C164.126 55.4723 157.517 60.9603 149.811 60.9603C141.895 60.9603 136.49 55.4256 136.49 47.7069M131.363 48.4016H133.349L132.306 57.8803C128.318 59.6309 123.973 60.9043 117.798 60.9043C105.359 60.9043 98.042 51.7776 98.042 41.6816C98.042 28.9309 107.135 20.9456 118.273 20.9456C125.027 20.9456 129.053 23.0949 131.395 24.5429L131.681 33.2936H129.793C127.537 26.2416 123.687 24.2923 117.947 24.2923C107.942 24.2923 104.31 31.2656 104.31 39.7656C104.31 49.0189 108.717 57.8989 118.857 57.8989C126.261 57.8989 129.118 54.4469 131.363 48.4016M279.289 39.1776H278.925L276.667 35.3936V40.4549H276.118V34.0589H276.483L279.109 38.4536L281.729 34.0589H282.098V40.4549H281.547V35.3936L279.289 39.1776ZM275.198 34.0589V34.5803H273.369V40.4549H272.819V34.5803H270.993V34.0589H275.198Z" fill="black"/>
<path d="M9.11154 59.1414L1.01554 34.1748C0.854206 33.6801 1.05554 33.0228 1.47154 32.6974L13.8462 22.9574C14.2635 22.6454 14.8622 22.7268 15.1729 23.1494L24.3755 35.8441C24.6849 36.2654 24.6929 36.9468 24.3982 37.3894L9.96087 59.2614C9.66754 59.6908 9.29287 59.6321 9.11154 59.1414Z" fill="black"/>
<path d="M50.0712 74.1435L33.7459 53.6702C33.4205 53.2582 32.7485 53.0555 32.2632 53.2115L17.3339 58.0289C16.8312 58.1902 16.5712 58.7222 16.7485 59.2342L22.1672 74.0142C22.3619 74.4982 22.9272 74.8889 23.4325 74.8889L49.7032 74.9169C50.2232 74.9049 50.3992 74.5609 50.0712 74.1435Z" fill="black"/>
<path d="M76.6428 40.5893L52.0881 49.8067C51.6095 49.9907 51.2161 50.5453 51.2161 51.0627L51.1895 66.7347C51.1935 67.256 51.6308 67.6773 52.1521 67.6667L67.9028 67.068C68.4201 67.052 68.9655 66.628 69.1175 66.1413L77.2481 41.1813C77.4121 40.6827 77.1375 40.4013 76.6428 40.5893Z" fill="black"/>
<path d="M52.9308 4.95983L54.1041 31.1558C54.1228 31.6785 54.5334 32.2238 55.0294 32.3865L69.9414 37.2625C70.4521 37.4078 70.9828 37.1132 71.1254 36.6238L75.4254 21.4598C75.5681 20.9705 75.3374 20.3092 74.9281 20.0092L53.6761 4.56249C53.2468 4.25983 52.9081 4.43849 52.9308 4.95983Z" fill="black"/>
<path d="M11.6998 16.5073L36.9772 23.4726C37.4838 23.6073 38.1358 23.3913 38.4412 22.978L47.6785 10.2913C47.9772 9.86063 47.8718 9.27663 47.4252 8.97529L34.3478 0.20996C33.9212 -0.0807064 33.2385 -0.068708 32.8132 0.240625L11.5532 15.666C11.1305 15.974 11.1972 16.3593 11.6998 16.5073Z" fill="black"/>
</svg>
