<svg width="253" height="239" viewBox="0 0 253 239" fill="none" xmlns="http://www.w3.org/2000/svg">
<path d="M218.005 74.6302C234.62 106.859 230.849 150.979 209.349 179.609C186.172 211.005 145.125 229.677 104.078 221.656C65.6823 214.323 30.9167 183.896 22.1198 145.448C11.651 102.573 29.3802 58.0312 66.099 34.2448C97.375 12.5312 145.823 11.0104 178.214 31.6198C195.104 41.5781 209.208 56.6562 218.005 74.6302Z" fill="#FFBC0D"/>
<path d="M213.958 74.6302C230.708 106.167 227.64 149.318 205.859 177.807C181.979 209.344 141.213 226.635 101.984 217.646C65.8227 209.896 33.0102 179.891 25.1925 143.234C15.5571 102.156 33.5727 59.9687 67.0779 37.7031C95.281 17.6458 139.12 14.8802 169.552 31.0677C188.687 40.7448 204.182 55.2708 213.958 74.6302Z" fill="white"/>
<path d="M193.849 53.0521C219.261 77.8125 227.781 118.063 215.63 151.948C204.042 185.146 173.042 209.484 138.281 215.156C101.281 220.823 65.9637 205.198 44.3231 176.427C22.12 147.797 19.8856 102.156 39.7137 71.3125C58.8387 39.6354 93.8804 21.7969 131.021 24.1458C155.458 25.9479 176.813 36.0417 193.849 53.0521Z" fill="#FFBC0D"/>
<path d="M181.286 87.4948C192.453 105.203 192.875 132.865 182.406 150.979C169.974 173.661 144.708 186.943 119.015 185.146C93.0467 183.76 69.453 165.917 61.354 141.854C53.8175 119.865 59.1196 94.1302 74.4738 77.3959C90.6717 59.1354 117.338 50.7031 141.911 57.6198C158.385 61.9063 172.349 72.9688 181.286 87.4948Z" fill="white"/>
<path d="M133.11 73.8021C133.667 75.3229 133.25 76.7031 133.386 78.3646C136.74 79.8854 139.813 82.6511 139.672 86.6615C139.115 88.599 138.552 90.5365 138.136 92.3333C139.813 92.6042 141.625 92.4688 143.021 93.7136C145.818 98.8333 141.766 104.646 138.969 108.932C136.042 111.146 140.651 111.833 140.651 113.911C142.323 118.474 140.516 123.734 137.578 126.911C137.578 127.464 136.042 128.297 137.162 129.125C136.875 130.922 137.016 133.411 135.766 135.208C136.182 136.87 134.787 136.177 134.646 137.422C132.136 139.781 128.641 141.156 125.709 141.432C126.547 126.776 126.13 112.385 125.995 97.1719C125.432 96.4844 124.453 95.6511 123.755 96.6146L122.917 98.1406C122.5 112.943 122.917 125.807 122.5 140.745C117.193 138.807 111.61 135.073 109.094 129.682C108.542 127.745 109.938 125.531 111.188 124.01C108.401 122.208 104.073 119.026 104.912 114.745C104.63 112.943 106.584 111.698 107.557 110.729C109.094 110.318 111.052 110.318 112.167 110.042C108.542 104.922 103.651 98.2761 106.584 91.3594C107.839 89.5625 110.214 89.4271 112.167 88.875C112.026 87.2188 110.349 85.8334 109.792 84.1719C109.094 82.0938 110.073 80.1563 110.912 78.5C113.005 76.5625 115.516 75.5938 118.453 75.5938C119.568 75.5938 121.662 77.5365 121.662 75.0417C121.662 72.8281 122.078 70.6198 124.177 69.6511C127.802 68.5417 131.99 70.474 133.11 73.8021Z" fill="#FFBC0D"/>
<path d="M133.109 73.8021C133.667 75.3229 133.25 76.7084 133.385 78.3646C136.734 79.8854 139.807 82.6511 139.667 86.6615C139.109 88.599 138.552 90.5365 138.135 92.3334C139.807 92.6094 141.625 92.4688 143.021 93.7188C145.813 98.8334 141.76 104.646 138.969 108.932C136.036 111.146 140.646 111.839 140.646 113.911C142.323 118.474 140.51 123.734 137.578 126.911C137.578 127.469 136.036 128.297 137.156 129.125C136.875 130.922 137.016 133.411 135.76 135.208C136.177 136.87 134.781 136.177 134.641 137.422C132.13 139.781 128.641 141.156 125.708 141.432C126.547 126.776 126.125 112.391 125.99 97.1719C125.427 96.4844 124.453 95.6511 123.755 96.6198L122.917 98.1459C122.495 112.943 122.917 125.807 122.495 140.745C117.193 138.807 111.604 135.073 109.094 129.682C108.536 127.745 109.932 125.531 111.188 124.01C108.396 122.208 104.068 119.026 104.906 114.745C104.625 112.943 106.578 111.698 107.557 110.729C109.094 110.318 111.047 110.318 112.167 110.042C108.536 104.922 103.651 98.2813 106.578 91.3646C107.839 89.5677 110.208 89.4323 112.167 88.875C112.026 87.2188 110.349 85.8334 109.792 84.1719C109.094 82.099 110.073 80.1563 110.911 78.5C113.005 76.5625 115.516 75.599 118.448 75.599C119.568 75.599 121.661 77.5365 121.661 75.0469C121.661 72.8334 122.073 70.6198 124.172 69.6511C127.797 68.5417 131.99 70.474 133.109 73.8021Z" stroke="white" stroke-width="0.333333" stroke-miterlimit="3.864"/>
<path d="M82.1511 101.458C83.8281 102.844 84.3854 104.646 84.9427 106.443C86.8959 106.307 89.1302 104.781 91.3646 105.75C95.5521 109.49 94.8542 115.708 96.5313 120.688C98.9011 121.375 102.255 120.547 103.375 123.313C105.745 127.745 104.625 133.271 104.911 138.526C108.682 137.979 111.328 141.021 113.005 143.646C115.099 149.182 116.911 154.849 113.984 160.521C101.698 147.932 90.2448 132.307 81.5938 116.953C81.4531 116.401 80.8959 116.672 80.474 116.542C79.2188 117.51 80.0573 119.026 80.3334 119.995C88.5729 135.484 99.1823 150.839 112.026 162.729C112.167 164.115 111.885 166.052 110.349 166.745C108.818 167.573 106.724 167.714 105.047 167.161C103.651 166.188 103.094 164.672 102.391 163.01C98.0677 163.01 92.6198 164.948 89.5469 160.661C88.8542 158.724 89.4063 156.505 89.6927 154.573C85.0834 153.052 78.3802 151.115 77.4063 145.307C77.125 143.646 78.099 142.401 78.9375 141.432C79.3542 141.156 79.7813 141.021 80.1927 140.604C76.4271 138.25 70.1406 136.87 69.4479 131.474C69.5834 128.849 72.099 127.88 73.7761 126.495C71.125 123.594 67.6302 120.547 68.6094 116.125C69.5834 113.771 72.375 113.771 74.3334 113.359C75.4479 108.932 71.4011 102.844 76.4271 99.9427C78.5209 99.9427 80.7552 99.8073 82.1511 101.458Z" fill="#FFBC0D"/>
<path d="M82.1509 101.458C83.8228 102.849 84.3853 104.646 84.9426 106.443C86.8957 106.307 89.1301 104.786 91.3592 105.75C95.5519 109.49 94.854 115.708 96.5311 120.688C98.9009 121.375 102.25 120.552 103.37 123.313C105.745 127.745 104.625 133.271 104.906 138.526C108.677 137.979 111.328 141.021 113 143.646C115.099 149.182 116.911 154.849 113.984 160.521C101.693 147.932 90.2446 132.307 81.5884 116.953C81.453 116.406 80.8905 116.672 80.4738 116.542C79.2134 117.51 80.0519 119.026 80.328 119.995C88.5676 135.484 99.1821 150.839 112.026 162.734C112.161 164.115 111.885 166.052 110.349 166.745C108.818 167.573 106.719 167.714 105.042 167.161C103.651 166.193 103.094 164.672 102.39 163.01C98.0676 163.01 92.6196 164.948 89.5467 160.661C88.8488 158.724 89.4061 156.51 89.6874 154.573C85.078 153.052 78.3801 151.115 77.4009 145.307C77.1196 143.646 78.0988 142.406 78.9374 141.432C79.354 141.156 79.7759 141.021 80.1926 140.604C76.4217 138.25 70.1405 136.87 69.4426 131.474C69.5832 128.849 72.0936 127.88 73.7707 126.495C71.1196 123.594 67.6249 120.552 68.604 116.125C69.5832 113.771 72.3749 113.771 74.328 113.359C75.4478 108.932 71.4009 102.849 76.4217 99.9479C78.5155 99.9479 80.7499 99.8073 82.1509 101.458Z" stroke="white" stroke-width="0.333333" stroke-miterlimit="3.864"/>
<path d="M171.781 103.953C173.458 107.411 171.359 111.286 171.646 115.016C173.74 115.708 176.531 115.984 177.365 118.333C178.063 122.484 174.432 124.974 172.063 127.745C173.599 129.401 176.531 130.505 176.109 133.135C174.854 137.979 169.411 138.667 165.641 141.021C167.313 142.26 168.573 144.333 167.734 146.552C166.198 151.531 160.615 152.781 156.427 153.88C156.01 156.505 157.542 160.661 153.917 161.901C151.12 163.01 146.51 161.766 143.443 162.318C143.443 163.844 142.182 165.083 141.068 165.911C139.391 166.609 137.438 165.911 135.901 165.219C135.063 164.391 134.505 163.151 134.646 161.901C136.042 158.859 139.672 157.203 141.625 154.573C150.979 145.172 158.099 134.38 164.943 123.312C165.5 121.797 167.458 119.995 165.781 118.198L164.943 118.333C155.307 132.859 146.094 147.104 132.974 159.276C130.88 156.786 131.99 152.359 131.854 149.458C132.974 144.896 135.203 139.495 140.229 138.667C141.068 138.948 142.323 138.667 142.323 137.698C141.766 133.135 142.182 127.464 144.417 123.182C146.094 121.375 149.583 123.312 150.839 121.245C152.516 116.542 151.536 109.76 156.844 107.411C159.078 106.854 160.052 108.38 161.729 108.797C162.427 105.615 164.521 102.984 167.875 102.292C169.411 102.292 171.083 102.708 171.781 103.953Z" fill="#FFBC0D"/>
<path d="M171.776 103.953C173.453 107.417 171.359 111.286 171.64 115.021C173.734 115.714 176.526 115.984 177.359 118.339C178.062 122.484 174.432 124.974 172.057 127.745C173.594 129.401 176.526 130.51 176.109 133.141C174.849 137.979 169.406 138.672 165.635 141.021C167.312 142.26 168.568 144.339 167.729 146.552C166.198 151.536 160.609 152.781 156.422 153.885C156.005 156.51 157.536 160.661 153.911 161.906C151.114 163.01 146.505 161.766 143.437 162.318C143.437 163.844 142.182 165.083 141.062 165.911C139.385 166.609 137.437 165.911 135.901 165.224C135.062 164.396 134.505 163.151 134.64 161.906C136.036 158.859 139.667 157.203 141.625 154.573C150.974 145.172 158.094 134.38 164.937 123.312C165.495 121.797 167.453 119.995 165.776 118.198L164.937 118.339C155.307 132.859 146.088 147.104 132.969 159.281C130.875 156.786 131.989 152.359 131.849 149.458C132.969 144.896 135.203 139.5 140.224 138.672C141.062 138.948 142.323 138.672 142.323 137.703C141.76 133.141 142.182 127.469 144.411 123.182C146.088 121.38 149.578 123.312 150.838 121.245C152.515 116.542 151.536 109.76 156.844 107.417C159.073 106.854 160.052 108.38 161.724 108.797C162.422 105.615 164.521 102.99 167.87 102.297C169.406 102.297 171.083 102.708 171.776 103.953Z" stroke="white" stroke-width="0.333333" stroke-miterlimit="3.864"/>
<path d="M125.709 144.896V163.563C127.802 163.01 129.896 159.276 132.552 160.661C134.37 164.526 128.781 164.807 127.245 167.297C127.526 170.479 124.313 169.786 122.219 169.786C120.964 169.786 119.849 168.958 119.849 167.714C118.594 166.188 116.073 166.052 114.261 165.083C113.427 164.526 113.563 163.286 113.844 162.599C115.938 160.521 118.87 163.563 121.38 163.974C121.943 164.255 121.943 163.563 122.078 163.151L122.219 144.333C122.5 143.37 123.479 143.646 124.177 143.234C125.011 143.51 125.573 144.063 125.709 144.896Z" fill="#FFBC0D"/>
<path d="M125.708 144.896V163.563C127.797 163.01 129.896 159.281 132.547 160.661C134.365 164.531 128.781 164.807 127.245 167.297C127.521 170.479 124.312 169.786 122.213 169.786C120.958 169.786 119.844 168.958 119.844 167.714C118.588 166.193 116.073 166.052 114.26 165.083C113.422 164.531 113.562 163.286 113.844 162.599C115.932 160.521 118.87 163.563 121.38 163.974C121.943 164.255 121.943 163.563 122.073 163.151L122.213 144.339C122.495 143.37 123.474 143.646 124.172 143.234C125.01 143.51 125.568 144.063 125.708 144.896Z" stroke="white" stroke-width="0.333333" stroke-miterlimit="3.864"/>
<path d="M36.6719 139.182L37.2083 141.146L45.2344 139.016C46.5313 138.667 47.5885 138.563 48.4844 139.073C49.276 139.531 50.0573 140.479 50.4583 141.984C50.7813 143.172 50.6615 144.255 50.0885 145.245C49.625 146.026 49.0365 146.401 47.474 146.818L39.3229 148.979L39.8542 150.943L48.4323 148.672C52.1979 147.672 53.0729 144.427 52.2917 141.542C51.1927 137.469 48.4271 136.057 45.0469 136.958L36.6719 139.182Z" fill="white"/>
<path d="M47.4896 130.74C47.573 131.422 48.2032 131.911 48.8855 131.828C49.5782 131.745 50.0678 131.115 49.9844 130.438C49.9011 129.755 49.2709 129.271 48.5834 129.354C47.9011 129.438 47.4063 130.063 47.4896 130.74Z" fill="white"/>
<path d="M35.9739 113.688C35.2708 114.656 34.901 115.724 34.8594 116.807C34.7708 119.396 36.1979 121.141 38.5156 121.229C42.4323 121.365 42.9844 115.26 45.9323 115.359C46.7344 115.385 47.7083 116.146 47.651 117.724C47.6042 119.115 46.8281 120.396 45.4479 121.38L48.0417 121.469C48.9844 120.323 49.4479 119.094 49.5052 117.557C49.5833 115.276 48.0104 113.542 45.7708 113.464C41.2292 113.307 41.0521 119.427 38.3125 119.328C37.3073 119.292 36.651 118.339 36.6979 117.031C36.7292 116.078 37.1094 114.932 38.2969 113.766L35.9739 113.688Z" fill="white"/>
<path d="M47.9897 108.333C47.8855 109.01 48.3491 109.646 49.0366 109.755C49.7189 109.865 50.3647 109.396 50.4741 108.719C50.5835 108.047 50.1095 107.406 49.4324 107.297C48.7449 107.193 48.0991 107.656 47.9897 108.333Z" fill="white"/>
<path d="M51.5938 83.1302L49.6407 87.4687L51.323 88.2083L52.4428 85.7292L55.1198 86.9114C55.0105 87.9271 54.8282 88.9375 54.3751 89.9427C52.9948 93.0104 49.9792 94.2656 47.073 92.9896C44.2396 91.7396 43.0573 88.6094 44.3178 85.8021C45.0157 84.2448 46.1615 82.8646 47.6876 81.7187L45.7917 80.8854C44.0209 82.5364 43.2917 83.4844 42.6146 85.0052C40.8386 88.9479 42.4219 93.2344 46.2657 94.9271C50.0938 96.6146 54.198 94.9271 55.9792 90.9687C56.7865 89.1667 57.1146 87.6302 57.1198 85.5677L51.5938 83.1302Z" fill="white"/>
<path fill-rule="evenodd" clip-rule="evenodd" d="M51.8491 69.2344L62.9481 78.1354L64.2397 76.5573L59.422 72.6927L59.9637 72.0312C60.62 71.2239 61.422 70.776 64.8856 71.151L68.3543 71.5312L69.896 69.6406C68.2189 69.5469 67.62 69.5208 66.4689 69.375C64.4012 69.1042 62.8752 68.8958 61.3908 69.3646C61.8804 67.8073 61.4637 66.375 60.1772 65.3437C58.2554 63.8021 55.9325 64.2396 54.1147 66.4583L51.8491 69.2344ZM54.5054 68.7448L55.3387 67.7344C56.5887 66.2031 57.7241 66.0989 58.7814 66.9167C59.7189 67.6458 60.2085 68.8333 58.8231 70.526L57.9897 71.5469L54.5054 68.7448Z" fill="white"/>
<path d="M73.5521 48.3333L67.0781 53.1615L75.6719 64.4583L82.2969 59.5156L81.1875 58.0625L76.2031 61.7865L73.5313 58.2708L78.1979 54.7865L77.0885 53.3281L72.4219 56.8125L69.8281 53.4011L74.6615 49.7917L73.5521 48.3333Z" fill="white"/>
<path d="M90.6563 39.0833L83.3125 42.4844L89.349 55.3021L96.8646 51.8333L96.0833 50.1771L90.4323 52.7917L88.5521 48.8021L93.849 46.3594L93.0677 44.7031L87.776 47.1458L85.9479 43.2708L91.4375 40.7396L90.6563 39.0833Z" fill="white"/>
<path d="M115.771 33L113.87 33.2969L115.594 44.1146L104.312 34.7969L102.698 35.0521L104.937 49.026L106.833 48.7292L105.12 37.9688L116.271 47.25L118.005 46.974L115.771 33Z" fill="white"/>
<path fill-rule="evenodd" clip-rule="evenodd" d="M131.297 47.099L136.151 47.776C139.693 48.2708 141.286 46.4375 141.531 44.7135C141.802 42.8229 140.708 41.2708 138.646 40.5885L138.656 40.5469C140.214 40.1563 141.031 39.3021 141.24 37.8438C141.49 36.0781 140.437 34.0885 137.391 33.6615L133.281 33.0938L131.297 47.099ZM135.057 35.1875L136.927 35.4427C138.792 35.6979 139.266 36.6875 139.115 37.7396C138.901 39.2344 137.823 39.8385 135.813 39.5573L134.464 39.375L135.057 35.1875ZM134.208 41.1823L136.656 41.526C138.792 41.8177 139.661 42.8594 139.479 44.1354C139.328 45.1823 138.521 46.2656 136.135 45.9375L133.589 45.5781L134.208 41.1823Z" fill="white"/>
<path d="M165.823 42.6875L163.943 41.8594L160.557 49.3854C160.015 50.599 159.432 51.4792 158.469 51.849C157.614 52.1771 156.375 52.1719 154.943 51.5417C153.812 51.0417 153.036 50.2656 152.625 49.2031C152.291 48.3542 152.375 47.6563 153.031 46.1979L156.463 38.5625L154.588 37.7344L150.974 45.7708C149.39 49.2969 151.38 52.0156 154.135 53.2292C158.015 54.9427 160.87 53.6979 162.291 50.5313L165.823 42.6875Z" fill="white"/>
<path d="M177.552 50.1458L175.89 48.9479L167.495 60.3958L169.156 61.5833L177.552 50.1458Z" fill="white"/>
<path d="M187.787 58.9844L186.36 57.5208L176.083 67.3489L181.995 73.4062L183.318 72.1354L178.839 67.5416L187.787 58.9844Z" fill="white"/>
<path fill-rule="evenodd" clip-rule="evenodd" d="M186.906 79.7917L189.609 84.6198C191.896 88.7031 196.328 89.5156 199.531 87.7604C202.479 86.1406 204.651 82.3177 202.089 77.7448L199.401 72.9375L186.906 79.7917ZM198.781 75.599L200.318 78.3385C202.255 81.8021 201.016 84.5469 198.505 85.9271C196.969 86.776 193.354 87.5469 191.099 83.5208L189.516 80.6875L198.781 75.599Z" fill="white"/>
<path d="M210.302 97.1042L209.703 95.1615L196.047 99.3021L196.646 101.245L210.302 97.1042Z" fill="white"/>
<path d="M213.969 122.297L213.839 120.396L202.807 121.161L213.162 110.833L213.047 109.224L198.802 110.208L198.932 112.109L209.901 111.349L199.599 121.547L199.719 123.286L213.969 122.297Z" fill="white"/>
<path d="M202.485 146.573L203.641 141.958L201.854 141.521L201.193 144.161L198.344 143.453C198.281 142.438 198.281 141.406 198.547 140.339C199.365 137.078 202.12 135.318 205.209 136.083C208.219 136.828 209.927 139.708 209.177 142.688C208.761 144.339 207.875 145.896 206.573 147.286L208.589 147.781C210.047 145.854 210.594 144.786 210.995 143.177C212.052 138.995 209.74 135.042 205.662 134.036C201.594 133.031 197.849 135.401 196.792 139.604C196.308 141.521 196.261 143.083 196.61 145.12L202.485 146.573Z" fill="white"/>
<path d="M84.8019 182.005C83.7446 180.198 82.7706 179.031 81.5987 178.151C77.9685 175.448 73.4269 176.005 70.8019 179.448C69.005 181.818 68.3904 186.479 72.6716 189.677C74.4633 191.01 76.005 191.505 77.5623 191.766L78.9112 189.995C76.9946 189.865 75.2498 189.26 73.9581 188.297C71.2133 186.25 70.6821 183.094 72.6091 180.562C74.4998 178.078 77.8383 177.682 80.4477 179.635C81.7654 180.62 82.6925 181.88 83.4841 183.74L84.8019 182.005Z" fill="white"/>
<path fill-rule="evenodd" clip-rule="evenodd" d="M86.7448 190.453C85.2917 194.016 86.7344 198.281 91.0625 200.016C95.5469 201.807 99.5313 199.688 100.974 196.151C102.464 192.5 100.964 188.318 96.5938 186.563C92.3021 184.849 88.224 186.818 86.7448 190.453ZM88.7031 191.24C89.8802 188.349 92.9375 187.115 95.8854 188.297C98.8594 189.484 100.188 192.479 99.0156 195.365C97.8438 198.229 94.7813 199.484 91.8073 198.302C88.8542 197.115 87.5365 194.104 88.7031 191.24Z" fill="white"/>
<path d="M120.625 192.557L118.594 192.281L117.437 200.432C117.245 201.745 116.937 202.75 116.109 203.365C115.375 203.911 114.182 204.25 112.625 204.031C111.406 203.865 110.448 203.333 109.75 202.417C109.198 201.693 109.083 201.005 109.307 199.427L110.479 191.151L108.453 190.865L107.214 199.578C106.672 203.396 109.338 205.458 112.323 205.875C116.536 206.464 118.932 204.495 119.417 201.062L120.625 192.557Z" fill="white"/>
<path d="M139.302 191.536L137.38 191.698L138.349 202.615L127.74 192.542L126.115 192.677L127.365 206.771L129.281 206.604L128.328 195.755L138.792 205.781L140.552 205.63L139.302 191.536Z" fill="white"/>
<path d="M156.823 187.021C154.713 186.88 153.198 187.036 151.807 187.51C147.51 188.974 145.437 193.016 146.859 197.094C147.833 199.896 151.396 203.01 156.463 201.276C158.583 200.557 159.854 199.568 160.943 198.432L160.213 196.333C159.031 197.833 157.552 198.927 156.026 199.453C152.781 200.562 149.838 199.234 148.797 196.229C147.771 193.286 149.312 190.328 152.406 189.276C153.969 188.74 155.542 188.693 157.542 189.083L156.823 187.021Z" fill="white"/>
<path d="M162.797 182.406L161 183.391L167.922 195.766L169.719 194.781L162.797 182.406Z" fill="white"/>
<path d="M170.891 176.922L169.297 178.203L178.281 189.193L184.896 183.896L183.734 182.479L178.724 186.5L170.891 176.922Z" fill="white"/>
<path d="M133.12 73.8021C133.677 75.3229 133.255 76.7083 133.396 78.3646C136.745 79.8854 139.818 82.651 139.677 86.6667C139.12 88.6042 138.562 90.5417 138.146 92.3333C139.818 92.6146 141.635 92.4688 143.026 93.7188C145.823 98.8385 141.771 104.651 138.979 108.938C136.047 111.146 140.656 111.839 140.656 113.917C142.333 118.479 140.521 123.734 137.583 126.917C137.583 127.469 136.047 128.302 137.167 129.125C136.885 130.927 137.026 133.417 135.771 135.214C136.187 136.875 134.792 136.182 134.651 137.427C132.14 139.781 128.651 141.156 125.719 141.432C126.557 126.781 126.135 112.391 126 97.1771C125.437 96.4844 124.458 95.6563 123.765 96.6198L122.922 98.1458C122.505 112.948 122.922 125.807 122.505 140.75C117.203 138.807 111.614 135.078 109.104 129.682C108.542 127.745 109.943 125.531 111.198 124.01C108.406 122.214 104.078 119.031 104.917 114.745C104.635 112.948 106.588 111.703 107.568 110.729C109.104 110.318 111.057 110.318 112.177 110.042C108.542 104.922 103.656 98.2813 106.588 91.3646C107.849 89.5677 110.219 89.4323 112.177 88.8802C112.036 87.2188 110.359 85.8385 109.802 84.1771C109.104 82.099 110.078 80.1615 110.917 78.5C113.01 76.5677 115.526 75.599 118.458 75.599C119.573 75.599 121.667 77.5365 121.667 75.0469C121.667 72.8333 122.083 70.6198 124.182 69.6563C127.807 68.5469 132 70.4792 133.12 73.8021Z" fill="#FFBC0D"/>
<path d="M82.1613 101.464C83.8332 102.849 84.3905 104.651 84.9478 106.443C86.9009 106.307 89.1405 104.786 91.3697 105.75C95.5624 109.49 94.8593 115.714 96.5416 120.693C98.9113 121.38 102.26 120.552 103.375 123.318C105.755 127.745 104.635 133.271 104.917 138.531C108.687 137.979 111.338 141.021 113.01 143.651C115.109 149.187 116.922 154.854 113.989 160.521C101.703 147.937 90.2551 132.307 81.5988 116.958C81.4582 116.406 80.9009 116.677 80.4791 116.547C79.2238 117.51 80.0624 119.031 80.3384 119.995C88.578 135.49 99.1926 150.844 112.036 162.734C112.177 164.12 111.896 166.057 110.359 166.75C108.823 167.573 106.729 167.719 105.052 167.161C103.656 166.193 103.099 164.672 102.401 163.01C98.0728 163.01 92.6301 164.953 89.5572 160.667C88.8593 158.729 89.4166 156.51 89.6978 154.578C85.0936 153.057 78.3905 151.12 77.4113 145.307C77.1301 143.651 78.1041 142.406 78.9478 141.432C79.3645 141.156 79.7863 141.021 80.203 140.609C76.4322 138.255 70.1509 136.875 69.453 131.479C69.5936 128.854 72.1041 127.88 73.7811 126.5C71.1249 123.594 67.6353 120.552 68.6145 116.125C69.5936 113.776 72.3853 113.776 74.3384 113.365C75.453 108.937 71.4061 102.849 76.4322 99.9479C78.5259 99.9479 80.7603 99.8073 82.1613 101.464Z" fill="#FFBC0D"/>
<path d="M171.786 103.953C173.469 107.417 171.375 111.286 171.651 115.021C173.745 115.714 176.542 115.99 177.375 118.339C178.073 122.49 174.443 124.979 172.073 127.745C173.604 129.406 176.542 130.51 176.12 133.141C174.865 137.979 169.422 138.672 165.646 141.021C167.323 142.266 168.578 144.339 167.74 146.557C166.208 151.536 160.62 152.781 156.432 153.885C156.016 156.51 157.547 160.667 153.922 161.906C151.125 163.01 146.521 161.771 143.448 162.318C143.448 163.844 142.193 165.089 141.073 165.917C139.401 166.609 137.443 165.917 135.911 165.224C135.073 164.396 134.516 163.151 134.651 161.906C136.047 158.859 139.677 157.203 141.635 154.578C150.99 145.172 158.109 134.385 164.948 123.318C165.505 121.802 167.464 119.995 165.792 118.203L164.948 118.339C155.313 132.865 146.099 147.104 132.979 159.281C130.885 156.792 132 152.359 131.865 149.458C132.979 144.896 135.214 139.5 140.24 138.672C141.073 138.948 142.333 138.672 142.333 137.703C141.771 133.141 142.193 127.469 144.422 123.182C146.099 121.38 149.589 123.318 150.844 121.245C152.526 116.542 151.547 109.766 156.854 107.417C159.083 106.859 160.063 108.38 161.74 108.797C162.432 105.615 164.531 102.99 167.885 102.297C169.422 102.297 171.089 102.714 171.786 103.953Z" fill="#FFBC0D"/>
<path d="M125.719 144.896V163.568C127.807 163.01 129.906 159.281 132.557 160.667C134.375 164.531 128.787 164.807 127.255 167.297C127.531 170.479 124.318 169.792 122.224 169.792C120.969 169.792 119.854 168.958 119.854 167.719C118.599 166.193 116.083 166.057 114.266 165.089C113.432 164.531 113.573 163.292 113.849 162.599C115.943 160.521 118.875 163.568 121.391 163.979C121.948 164.26 121.948 163.568 122.083 163.151L122.224 144.339C122.505 143.37 123.485 143.651 124.182 143.234C125.016 143.516 125.578 144.068 125.719 144.896Z" fill="#FFBC0D"/>
</svg>
