<svg width="238" height="238" viewBox="0 0 238 238" fill="none" xmlns="http://www.w3.org/2000/svg">
<g clip-path="url(#clip0_40_48)">
<path d="M23.356 17.8961V170.639H217.009V17.8961H23.356ZM23.3614 170.644V216.549H217.011V170.642H212.464V211.994H27.898V170.642H23.3616L23.3614 170.644Z" fill="white"/>
<path d="M27.903 22.4549V86.9931C48.5722 58.2844 82.2281 39.5563 120.171 39.5563C158.119 39.5563 191.779 58.2915 212.466 87.0207V22.4549H27.9002H27.903ZM120.171 44.1147C81.7476 44.1147 47.8243 63.8013 27.903 93.6381V166.079H212.469V93.6628C192.545 63.8145 158.608 44.1147 120.171 44.1147V44.1147ZM27.8975 170.645V211.996H212.463V170.645H27.8975V170.645Z" fill="#20BBED"/>
<path d="M172.106 70.7641C171.203 70.7641 170.407 71.3081 170.074 72.1511C170.074 72.1511 162.083 92.6956 161.167 95.0421C158.658 95.1798 136.806 96.3324 136.806 96.3324C135.65 96.3943 134.742 97.3624 134.742 98.515C134.742 98.5494 134.747 98.592 134.747 98.6333C134.809 99.834 135.836 100.756 137.048 100.698L162.803 99.3322C163.651 99.291 164.41 98.7434 164.723 97.9452C164.723 97.9452 169.601 85.3807 172.107 78.9572C174.595 85.3705 179.453 97.87 179.453 97.87C179.762 98.6682 180.507 99.2055 181.351 99.2571C181.351 99.2571 194.651 100.017 201.449 100.413C196.205 104.776 185.925 113.348 185.925 113.348C185.414 113.767 185.132 114.381 185.132 115.025C185.132 115.211 185.151 115.389 185.196 115.568C185.196 115.568 188.5 128.501 190.199 135.131C184.475 131.432 173.319 124.218 173.319 124.218C172.608 123.753 171.682 123.751 170.965 124.202C170.965 124.202 159.689 131.406 153.848 135.126C155.629 128.685 158.83 117.089 158.83 117.089C158.871 116.9 158.905 116.698 158.905 116.509C158.905 115.549 158.273 114.679 157.302 114.407C156.145 114.087 154.936 114.767 154.621 115.934L148.143 139.443C147.902 140.306 148.218 141.239 148.942 141.776C149.669 142.313 150.652 142.34 151.414 141.862C151.414 141.862 170.014 129.991 172.128 128.643C174.222 130.002 192.51 141.825 192.51 141.825C193.269 142.313 194.232 142.288 194.966 141.765C195.539 141.346 195.878 140.688 195.878 139.997C195.878 139.818 195.847 139.626 195.803 139.454C195.803 139.454 190.372 118.219 189.765 115.821C191.656 114.242 208.485 100.23 208.485 100.23C208.989 99.8072 209.273 99.1842 209.273 98.5477C209.273 98.3137 209.236 98.094 209.16 97.8703C208.886 97.017 208.111 96.4221 207.219 96.3705C207.219 96.3705 185.505 95.1207 183.003 94.9727C182.087 92.6365 174.134 72.1516 174.134 72.1516C173.811 71.3121 172.999 70.7645 172.107 70.7645L172.106 70.7641ZM65.5314 100.387C60.936 100.177 53.1451 106.187 46.0823 120.122C45.6945 120.886 45.4095 121.595 45.1761 122.283C37.7564 124.506 32.8184 122.526 32.4889 122.385C31.7511 122.076 30.8942 122.42 30.5853 123.159C30.2627 123.903 30.602 124.751 31.3467 125.068C31.6968 125.226 36.8341 127.331 44.511 125.476C44.5076 125.573 44.4897 125.681 44.4897 125.777C44.4897 127.942 45.4008 129.417 46.5916 130.191C49.9239 132.369 57.2612 130.513 67.9069 119.617C67.2171 121.585 66.6016 123.738 66.207 125.971C66.1897 126.067 66.1856 126.167 66.1856 126.256C66.1856 126.868 66.5401 127.421 67.1132 127.648C68.2629 128.12 68.9248 127.162 69.5048 126.326L70.9794 124.116C72.2595 122.19 75.1325 117.855 77.0818 115.585C76.845 116.834 76.6046 118.237 76.6046 119.568C76.6046 121.371 77.0424 123.021 78.4975 123.875C79.7158 124.583 81.666 124.834 85.8974 122.305C86.2543 123.285 86.971 123.748 87.3828 123.945C90.0837 125.2 95.1775 122.487 100.494 117.391C99.7763 119.005 99.2241 120.346 99.0834 120.907C99.0491 121.062 99.0351 121.214 99.0351 121.348C99.0351 122.026 99.4409 122.511 99.9145 122.724C101.081 123.24 101.826 122.216 102.413 121.38L104.017 119.058C105.345 117.09 108.47 112.476 110.296 110.563C110.835 111.888 111.802 113.568 113.535 114.542C113.03 115.684 112.779 116.667 112.779 117.493C112.779 118.512 113.159 119.285 113.921 119.805C115.287 120.734 117.362 120.222 119.524 119.042C112.619 125.909 109.446 132.755 109.347 135.793C109.344 135.848 109.341 135.91 109.341 135.965C109.341 137.658 110.171 138.339 110.682 138.594C111.732 139.12 113.012 138.79 114.495 137.61C119.697 133.471 123.485 123.647 125.417 117.633C128.012 115.514 131.049 113.449 134.539 111.563C133.406 113.556 132.764 115.437 132.764 116.961C132.764 117.511 132.847 118.022 133.005 118.466C133.407 119.533 134.265 120.211 135.359 120.321C137.758 120.586 141.072 118.066 144.985 113.225C144.652 114.188 144.322 115.126 143.993 116.042C133.127 124.626 128.241 133.798 127.616 138.777C127.562 139.183 127.531 139.562 127.531 139.906C127.531 141.891 128.33 142.806 129.064 143.223C129.891 143.694 131.293 143.924 133.36 142.341C135.659 140.58 141.14 131.967 146.449 117.778C153.498 112.349 163.157 107.157 176.007 103.596C176.652 103.414 177.085 102.829 177.085 102.183C177.085 102.059 177.06 101.925 177.026 101.801C176.81 101.02 176.007 100.566 175.224 100.779C164.002 103.897 155.114 108.257 148.171 112.977C148.998 110.514 149.822 107.91 150.622 105.172C150.66 105.034 150.676 104.901 150.676 104.763C150.676 104.202 150.351 103.673 149.823 103.435C149.161 103.136 148.379 103.369 147.994 103.978C140.753 115.377 136.653 117.451 135.747 117.434C135.696 117.335 135.661 117.195 135.661 116.988C135.661 115.688 136.767 112.443 140.353 108.634C140.607 108.358 140.755 107.998 140.755 107.634C140.755 107.345 140.659 107.052 140.487 106.8C140.089 106.24 139.355 106.019 138.723 106.284C134.152 108.225 130.211 110.52 126.786 112.956C126.824 112.815 126.851 112.71 126.862 112.666C126.885 112.542 126.915 112.428 126.915 112.311C126.915 111.777 126.609 111.272 126.122 111.021C126.091 111.01 126.074 111.009 126.047 110.999C127.049 110.208 128.078 109.343 129.162 108.338C130.305 107.271 130.599 106.301 130.599 105.585C130.599 105.269 130.539 105.012 130.471 104.806C130.138 103.774 129.185 103.099 127.88 102.94C124.665 102.565 119.57 105.293 115.006 112.026C113.451 111.19 112.842 109.157 112.56 108.225L112.448 107.849C112.259 107.236 111.701 106.856 111.059 106.86C110.074 106.87 109.017 107.55 107.359 109.504C107.383 109.46 107.401 109.408 107.428 109.37C107.525 109.167 107.568 108.954 107.568 108.741C107.568 108.242 107.312 107.76 106.865 107.488C106.22 107.1 105.394 107.266 104.951 107.865C96.8382 118.816 89.7347 121.859 88.6228 121.305C88.616 121.27 88.5906 121.193 88.5906 121.004C88.5906 120.88 88.6118 120.701 88.6496 120.488C90.4617 119.187 92.6053 117.487 95.138 115.278C97.4888 113.234 98.0282 111.579 98.0282 110.488C98.0282 109.989 97.9113 109.614 97.8084 109.37C97.3279 108.242 96.1681 107.617 94.768 107.741C91.7584 107.999 87.997 111.531 86.1026 118.719C81.401 121.936 80.1345 121.448 79.9629 121.348C79.3246 120.98 79.3748 118.963 80.1023 115.354C80.4215 113.754 80.5665 113.021 80.2096 112.354C79.8595 111.7 79.2523 111.313 78.5419 111.279C77.0113 111.207 75.2802 112.808 71.6836 117.907C73.1078 114.511 74.4983 112.179 74.5257 112.144C74.6699 111.907 74.7402 111.644 74.7402 111.386C74.7402 110.929 74.5232 110.478 74.1182 110.193C73.5005 109.749 72.6464 109.866 72.1557 110.462C59.3649 126.116 50.6621 129.371 48.181 127.751C47.649 127.4 47.3926 126.724 47.3926 125.815C47.3926 125.44 47.4536 125.019 47.5428 124.568C52.3301 122.858 57.87 119.575 63.7316 113.547C67.1942 110.003 69.051 106.679 69.051 104.15C69.051 103.582 68.9609 103.053 68.7722 102.575C68.2574 101.264 67.0743 100.466 65.5333 100.387L65.5314 100.387ZM65.3974 103.301C65.9396 103.328 66.0176 103.541 66.0622 103.645C66.1068 103.775 66.1427 103.95 66.1427 104.15C66.1427 105.423 65.0363 108.043 61.6491 111.515C57.1158 116.174 52.8259 119.066 48.9995 120.821C55.7293 107.843 62.6005 103.17 65.3976 103.301L65.3974 103.301ZM127.492 105.843C127.417 105.943 127.334 106.057 127.176 106.198C123.833 109.305 120.889 111.28 118.559 112.047C122.207 107.302 125.367 106.181 126.366 105.94C126.898 105.816 127.259 105.812 127.492 105.843V105.843ZM95.0926 110.649C95.0171 110.994 94.6473 111.834 93.2265 113.08C92.1661 113.998 91.189 114.823 90.2932 115.552C91.7723 112.439 93.4579 111.279 94.079 110.956C94.556 110.698 94.8934 110.65 95.0924 110.65L95.0926 110.649ZM121.974 113.735C119.156 116.233 116.595 117.388 115.689 117.391C115.699 117.116 115.82 116.48 116.386 115.3C118.047 115.362 119.901 114.85 121.974 113.735V113.735ZM141.745 121.778C137.286 132.502 133.114 138.844 131.583 140.035C131.082 140.41 130.733 140.577 130.548 140.632C130.493 140.501 130.446 140.28 130.446 139.895C130.446 139.224 130.596 138.152 131.138 136.61C132.473 132.787 135.818 127.348 141.745 121.778V121.778ZM120.848 121.81C118.868 126.916 116.061 132.642 112.681 135.326C112.516 135.46 112.378 135.56 112.257 135.643C112.408 133.534 114.983 127.869 120.848 121.81V121.81ZM110.799 179.269C105.908 179.269 103.538 182.219 103.538 186.833V194.429C103.538 200.839 105.908 203.375 110.799 203.375C113.774 203.375 115.982 202.675 117.866 201.649V190.392H110.67V192.956H114.928V199.881C114.317 200.328 112.909 200.907 110.799 200.907C108.019 200.907 106.546 199.623 106.546 194.559V186.742C106.546 181.897 109.872 181.737 110.799 181.737C113.774 181.737 114.896 183.212 114.896 185.941H117.963C118.158 181.1 115.789 179.269 110.799 179.269V179.269ZM149.285 179.269C145.411 179.269 142.502 181.452 142.502 185.554C142.502 192.514 152.862 191.928 152.862 197.058C152.862 199.814 151.072 200.811 148.738 200.811C146.854 200.811 144.866 199.816 144.866 196.671V195.999H141.96C141.895 198.212 141.891 203.439 148.7 203.38C152.51 203.38 155.87 201.801 155.87 196.929C155.87 189.594 145.51 190.326 145.51 185.231C145.51 182.729 147.299 181.833 149.06 181.833C151.839 181.833 152.635 183.501 152.604 186.037H155.671C155.87 181.323 153.503 179.269 149.285 179.269L149.285 179.269ZM35.8605 179.748V202.891H47.9418V200.327H38.7989V192.316H47.1104V189.752H38.7989V182.317H47.7487V179.747H35.8605V179.748ZM51.6256 179.748V202.891H54.2478V182.828H54.3122L63.4229 202.891H67.4554V179.748H64.8332V199.563H64.7689L55.7818 179.748H51.6259H51.6256ZM71.5305 179.748V202.891H83.617V200.327H74.4742V192.316H82.7911V189.752H74.4742V182.317H83.4291V179.747H71.5302L71.5305 179.748ZM87.1617 179.748V202.891H90.1002V192.252H93.5535C94.5488 192.252 96.8105 192.382 97.0337 195.204C97.2911 198.28 97.1006 201.295 97.9346 202.891H101.002C100.552 201.457 100.234 197.829 100.203 196.838C100.045 192.186 99.0894 191.29 96.4332 190.871V190.806C99.1478 190.328 100.648 188.247 100.648 185.522C100.648 182.635 99.2138 179.748 95.1195 179.748H87.162L87.1617 179.748ZM119.49 179.748L125.694 194.075V202.891H128.633V194.075L134.928 179.748H131.957L127.292 190.935L122.783 179.748H119.49H119.49ZM157.191 179.748V182.317H163.266V202.891H166.205V182.317H172.281V179.748H157.191V179.748ZM190.678 179.748V202.891H193.622V192.252H197.075C198.067 192.252 200.334 192.382 200.56 195.204C200.814 198.28 200.622 201.295 201.456 202.891H204.523C204.077 201.457 203.761 197.829 203.73 196.838C203.568 192.186 202.607 191.29 199.955 190.871V190.806C202.666 190.328 204.169 188.247 204.169 185.522C204.169 182.635 202.732 179.748 198.641 179.748H190.678V179.748ZM177.16 179.753L169.84 202.891H172.811L174.537 197.375H183.46L185.117 202.891H188.415L180.903 179.753H177.16H177.16ZM90.0971 182.317H94.5424C96.8074 182.317 97.6418 184.173 97.6418 185.839C97.6418 187.862 96.6189 189.688 94.5048 189.688H90.0969V182.317H90.0971ZM193.622 182.317H198.067C200.335 182.317 201.166 184.173 201.166 185.839C201.166 187.862 200.142 189.688 198.035 189.688H193.622V182.317ZM178.881 182.479H178.95L182.656 194.817H175.272L178.881 182.479V182.479Z" fill="white"/>
</g>
<defs>
<clipPath id="clip0_40_48">
<rect width="195" height="200" fill="white" transform="translate(21 19)"/>
</clipPath>
</defs>
</svg>
