<?xml version="1.0" encoding="utf-8"?>
<svg width="16px" height="408px" viewBox="0 0 16 409" xmlns="http://www.w3.org/2000/svg">
  <svg width="24" height="24" id="arrows-brand-down" y="0" transform="matrix(0, 0, 0, 0, 0, 4.47499942779541)" >
    <path d="M 6.993 4.475 L 9.008 4.475 L 9.008 16.564 L 14.549 11.023 L 15.979 12.453 L 8.001 20.432 L 0.022 12.453 L 1.453 11.023 L 6.993 16.564 Z"  fill-rule="evenodd" />
  </svg>
  <svg width="24" height="24" id="arrows-brand-up" y="0" transform="matrix(0, 0, 0, 0, 0, -19.524999618530273)" >
    <path d="M 6.989 20.174 L 9.011 20.174 L 9.011 8.052 L 14.566 13.608 L 16 12.174 L 8 4.174 L 0 12.174 L 1.437 13.608 L 6.989 8.052 Z" fill-rule="evenodd"  />
  </svg>
  <svg width="24" height="24" id="arrows-caret-down" y="0" transform="matrix(0, 0, 0, 0, 0, -43.52499771118164)">
    <path d="M 2.963 10.395 L 8 15.432 L 13.037 10.395 Z"  fill-rule="evenodd" />
  </svg>
  <svg width="24" height="24" id="arrows-caret-up" y="0" transform="matrix(0, 0, 0, 0, 0, -67.52499389648438)">
    <path d="M 2.963 15.61 L 8 10.573 L 13.037 15.61 Z"  fill-rule="evenodd" />
  </svg>
  <svg width="24" height="24" id="arrows-chevron-down" y="0" transform="matrix(0, 0, 0, 0, 0, -91.52499389648438)">
    <path d="M 2.559 3.698 L 0.889 5.39 L 8 12.587 L 15.111 5.39 L 13.44 3.698 L 8 9.191 L 2.559 3.698 Z M 2.559 10.809 L 0.889 12.501 L 8 19.698 L 15.111 12.501 L 13.44 10.809 L 8 16.302 L 2.559 10.809 Z"  fill-rule="evenodd" />
  </svg>
  <svg width="24" height="24" id="arrows-chevron-left" y="0" transform="matrix(0, 0, 0, 0, 0, -115.52499389648438)">
    <path d="M 16 6.554 L 14.308 4.883 L 7.111 11.994 L 14.308 19.105 L 16 17.434 L 10.506 11.994 L 16 6.554 Z M 8.889 6.554 L 7.197 4.883 L 0 11.994 L 7.197 19.105 L 8.889 17.434 L 3.395 11.994 L 8.889 6.554 Z"  fill-rule="evenodd" />
  </svg>
  <svg width="24" height="24" id="arrows-chevron-right" y="0" transform="matrix(0, 0, 0, 0, 0, -139.52499389648438)">
    <path d="M 0 6.731 L 1.692 5.06 L 8.889 12.171 L 1.692 19.282 L 0 17.611 L 5.494 12.171 L 0 6.731 Z M 7.111 6.731 L 8.803 5.06 L 16 12.171 L 8.803 19.282 L 7.111 17.611 L 12.605 12.171 L 7.111 6.731 Z"  fill-rule="evenodd" />
  </svg>
  <svg width="24" height="24" id="arrows-chevron-up" y="0" transform="matrix(0, 0, 0, 0, 0, -163.52499389648438)">
    <path d="M 13.44 20.23 L 15.111 18.538 L 8 11.341 L 0.889 18.538 L 2.559 20.23 L 8 14.736 L 13.44 20.23 Z M 13.44 13.119 L 15.111 11.427 L 8 4.23 L 0.889 11.427 L 2.559 13.119 L 8 7.625 L 13.44 13.119 Z"  fill-rule="evenodd" />
  </svg>
  <svg width="24" height="24" id="arrows-thick-down" y="0" transform="matrix(0, 0, 0, 0, 0, -187.52499389648438)">
    <path d="M 16 11.33 L 14.12 9.427 L 8 15.606 L 1.879 9.427 L 0 11.33 L 8 19.427 Z"  fill-rule="evenodd" />
  </svg>
  <svg width="24" height="24" id="arrows-thick-left" y="0" transform="matrix(0, 0, 0, 0, 0, -211.5249786376953)">
    <path d="M 11.097 5.592 L 13 7.472 L 6.82 13.592 L 13 19.712 L 11.097 21.592 L 3 13.592 Z"  fill-rule="evenodd" />
  </svg>
  <svg width="24" height="24" id="arrows-thick-right" y="0" transform="matrix(0, 0, 0, 0, 0, -235.52499389648438)">
    <path d="M 4.903 5.769 L 3 7.649 L 9.179 13.769 L 3 19.889 L 4.903 21.769 L 13 13.769 Z"  fill-rule="evenodd" />
  </svg>
  <svg width="24" height="24" id="arrows-thick-up" y="0" transform="matrix(0, 0, 0, 0, 0, -259.5249938964844)">
    <path d="M 0 17.065 L 1.88 18.968 L 8 12.789 L 14.12 18.968 L 16 17.065 L 8 8.968 Z"  fill-rule="evenodd" />
  </svg>
  <svg width="24" height="24" id="arrows-thin-down" y="0" transform="matrix(0, 0, 0, 0, 0, -283.5249938964844)">
    <path d="M 16 7.799 L 15.335 7.131 L 7.999 14.467 L 0.664 7.132 L 0 7.798 L 6.398 14.196 L 6.394 14.199 L 7.999 15.801 L 9.603 14.199 L 9.599 14.195 Z"  fill-rule="evenodd" />
  </svg>
  <svg width="24" height="24" id="arrows-thin-left" y="0" transform="matrix(0, 0, 0, 0, 0, -307.5249938964844)">
    <path d="M 11.666 2.271 L 12.334 2.936 L 4.999 10.272 L 12.333 17.606 L 12.333 17.606 L 11.668 18.271 L 5.269 11.873 L 5.266 11.877 L 3.665 10.272 L 5.266 8.667 L 5.27 8.671 L 11.666 2.271 Z"  fill-rule="evenodd" />
  </svg>
  <svg width="24" height="24" id="arrows-thin-right" y="0" transform="matrix(0, 0, 0, 0, 0, -331.5249938964844)">
    <path d="M 4.333 2.449 L 3.665 3.114 L 11.001 10.45 L 3.666 17.784 L 4.332 18.449 L 10.73 12.051 L 10.733 12.055 L 12.335 10.45 L 10.733 8.845 L 10.729 8.849 Z"  fill-rule="evenodd" />
  </svg>
  <svg width="24" height="24" id="arrows-thin-up" y="0" transform="matrix(0, 0, 0, 0, 0, -355.5249938964844)">
    <path d="M 16 15.664 L 15.335 16.333 L 7.998 8.996 L 0.664 16.331 L 0 15.665 L 6.397 9.267 L 6.393 9.263 L 7.998 7.663 L 9.603 9.263 L 9.599 9.268 Z"  fill-rule="evenodd" />
  </svg>
  <svg width="24" height="24" id="arrows-up-down" y="0" transform="matrix(0, 0, 0, 0, 0, -379.5249938964844)">
    <path d="M 11.599 15.009 L 12.704 16.114 L 8.001 20.818 L 3.297 16.114 L 4.403 15.009 L 8.001 18.599 L 11.599 15.009 Z M 8.001 4.818 L 12.704 9.521 L 11.599 10.627 L 8.001 7.037 L 4.403 10.627 L 3.297 9.521 L 8.001 4.818 Z"  fill-rule="evenodd" />
  </svg>
</svg>
