<?xml version="1.0"?>
<!--Icons from directory ""-->
<svg xmlns="http://www.w3.org/2000/svg" width="24" height="120" viewBox="0 0 16 16"><svg width="24" height="24"
    id="social-android" y="0">
    <path
      d="M15 5.003h-1v-1h1v1zm-5 0H9v-1h1v1zm6.84-4.15c.19-.19.19-.51 0-.71a.513.513 0 00-.71 0l-1.48 1.48c-.8-.39-1.7-.62-2.65-.62-.96 0-1.86.23-2.66.63L7.85.143a.501.501 0 00-.7 0c-.2.2-.2.52 0 .71l1.31 1.31C6.97 3.263 6 5.002 6 7.002h12c0-2-1-3.75-2.47-4.84l1.31-1.31zm3.66 7.15a1.5 1.5 0 00-1.5 1.5v7a1.5 1.5 0 003 0v-7a1.5 1.5 0 00-1.5-1.5zm-17 0a1.5 1.5 0 00-1.5 1.5v7a1.5 1.5 0 003 0v-7a1.5 1.5 0 00-1.5-1.5zm2.5 10a1 1 0 001 1h1v3.5a1.5 1.5 0 003 0v-3.5h2v3.5a1.5 1.5 0 003 0v-3.5h1a1 1 0 001-1v-10H6v10z"
       fill-rule="evenodd" /></svg><svg width="24" height="24" id="social-apple" y="0">
    <path
      d="M18.846 19.5c-.83 1.24-1.71 2.45-3.05 2.47-1.34.03-1.77-.79-3.29-.79-1.53 0-2 .77-3.27.82-1.31.05-2.3-1.32-3.14-2.53-1.71-2.47-3.02-7.02-1.26-10.08.87-1.52 2.43-2.48 4.12-2.51 1.28-.02 2.5.87 3.29.87.78 0 2.26-1.07 3.81-.91.65.03 2.47.26 3.64 1.98-.09.06-2.17 1.28-2.15 3.81.03 3.02 2.65 4.03 2.68 4.04-.03.07-.42 1.44-1.38 2.83zm-5.71-16c.73-.83 1.94-1.46 2.94-1.5.13 1.17-.34 2.35-1.04 3.19-.69.85-1.83 1.51-2.95 1.42-.15-1.15.41-2.35 1.05-3.11z"
       fill-rule="evenodd" /></svg><svg width="24" height="24" id="social-linkedin" y="0">
    <path
      d="M7.682 9.045v10H4.955v-10h2.727zm8.047 0c1.134 0 2.046.374 2.736 1.12.69.746 1.035 1.839 1.035 3.279v5.601h-3.274v-5.227c0-.69-.134-1.23-.402-1.622-.27-.391-.689-.587-1.26-.587-.417 0-.767.114-1.049.34a2.096 2.096 0 00-.632.844c-.073.197-.11.463-.11.799v5.453H9.5c.01-2.098.017-3.88.02-5.342v-1.038-1.268c-.002-.878-.005-1.429-.01-1.651l-.01-.474h3.274v1.39c.126-.198.255-.372.388-.522a4.23 4.23 0 01.562-.513c.235-.184.524-.327.866-.429a3.976 3.976 0 011.139-.153zM6.328 4.5c.544 0 .98.172 1.307.516.327.344.495.778.501 1.302.007.518-.159.95-.496 1.297-.337.348-.781.521-1.332.521h-.02c-.537 0-.97-.173-1.297-.52-.327-.348-.491-.78-.491-1.298 0-.524.169-.958.506-1.302.338-.344.778-.516 1.322-.516z"
       fill-rule="evenodd" /></svg><svg width="24" height="24" id="social-windows" y="0">
    <path
      d="M3 12V6.75l6-1.32v6.48L3 12zm17-9v8.75l-10 .15V5.21L20 3zM3 13l6 .09v6.81l-6-1.15V13zm17 .25V22l-10-1.91V13.1l10 .15z"
       fill-rule="evenodd" /></svg><svg width="24" height="24" id="social-youtube" y="0">
    <path
      d="M16.327 15.703h-.843l.004-.51c0-.226.179-.412.397-.412h.054c.218 0 .398.186.398.412l-.01.51zm-3.162-1.093c-.214 0-.389.15-.389.333v2.481c0 .183.175.332.39.332.214 0 .389-.15.389-.332v-2.48c0-.184-.175-.334-.39-.334zm5.135-1.387v4.719c0 1.132-.942 2.058-2.094 2.058H7.594C6.442 20 5.5 19.074 5.5 17.942v-4.72c0-1.131.942-2.057 2.094-2.057h8.612c1.152 0 2.094.926 2.094 2.058zM8.169 18.454l-.001-4.97h1.068v-.737l-2.846-.004v.724l.888.003v4.984h.89zm3.2-4.23h-.89v2.654c0 .384.022.576-.002.644-.072.206-.397.424-.524.022-.022-.07-.003-.283-.003-.647l-.004-2.673h-.885l.003 2.63c0 .404-.009.704.003.841.022.242.014.523.229.683.4.3 1.168-.044 1.36-.474l-.002.548.715.001v-4.23zm2.847 3.04l-.002-2.21c0-.842-.605-1.346-1.426-.665l.004-1.642-.89.001-.004 5.67.731-.011.067-.353c.934.892 1.521.28 1.52-.79zM17 16.97l-.667.003-.002.094v.388a.372.372 0 01-.364.377h-.131c-.2 0-.365-.169-.365-.377V16.437H17v-.6c0-.438-.01-.876-.046-1.126-.109-.792-1.176-.917-1.715-.512-.169.127-.298.296-.373.523-.076.228-.114.54-.114.935v1.317c0 2.19 2.554 1.88 2.25-.003zm-3.423-7.152c.046.116.117.21.214.282.096.07.218.105.364.105a.551.551 0 00.341-.11.847.847 0 00.25-.333l-.017.363h.992V5.732h-.78v3.42a.332.332 0 01-.326.337.333.333 0 01-.325-.337v-3.42h-.815v2.964c0 .377.006.63.017.757.011.127.04.248.085.366zm-3.006-2.482c0-.422.033-.751.1-.989.068-.237.19-.427.365-.57.176-.144.4-.217.673-.217.23 0 .426.047.59.14a1 1 0 01.38.36c.09.148.152.301.184.457.034.159.05.398.05.72V8.35c0 .407-.016.707-.046.897a1.46 1.46 0 01-.196.535.943.943 0 01-.382.365c-.156.08-.335.118-.538.118-.226 0-.416-.033-.573-.1a.794.794 0 01-.366-.305c-.088-.136-.15-.3-.187-.493-.037-.192-.055-.481-.055-.867V7.337zm.777 1.746c0 .249.178.452.394.452.217 0 .394-.203.394-.452v-2.34c0-.248-.177-.452-.394-.452-.216 0-.394.204-.394.452v2.34zm-2.746 1.181h.936l.001-3.37 1.106-2.888H9.622L9.034 6.15 8.438 4H7.425l1.177 2.895.001 3.369z"
       fill-rule="evenodd" /></svg></svg>
