<?xml version="1.0"?>
<!--Icons from directory ""-->
<svg xmlns="http://www.w3.org/2000/svg" width="24" height="168" viewBox="0 0 24 168">
  <svg width="24" height="24" id="maps-car" y="0">
    <path d="M18.92 5.01C18.72 4.42 18.16 4 17.5 4h-11c-.66 0-1.21.42-1.42 1.01L3 11v8c0 .55.45 1 1 1h1c.55 0 1-.45 1-1v-1h12v1c0 .55.45 1 1 1h1c.55 0 1-.45 1-1v-8l-2.08-5.99zM6.5 15c-.83 0-1.5-.67-1.5-1.5S5.67 12 6.5 12s1.5.67 1.5 1.5S7.33 15 6.5 15zm11 0c-.83 0-1.5-.67-1.5-1.5s.67-1.5 1.5-1.5 1.5.67 1.5 1.5-.67 1.5-1.5 1.5zM5 10l1.5-4.5h11L19 10H5z"
       fill-rule="evenodd" /></svg>
  <svg width="24" height="24" id="maps-corridor" y="0">
    <path d="M19.229 9.419c0 .332.066.649.186.937l-5.427 3.887A2.373 2.373 0 0012 13.16a2.36 2.36 0 00-1.839.894l-5.558-3.76c.104-.271.167-.565.167-.874C4.77 8.083 3.702 7 2.386 7 1.068 7 0 8.083 0 9.42s1.068 2.42 2.386 2.42c.64 0 1.22-.26 1.648-.677l5.66 3.83a2.448 2.448 0 00-.08.585c0 1.337 1.069 2.422 2.387 2.422 1.315 0 2.384-1.085 2.384-2.422 0-.109-.018-.213-.032-.317l5.663-4.056c.424.39.982.636 1.6.636C22.93 11.84 24 10.757 24 9.419 24 8.083 22.931 7 21.615 7c-1.318 0-2.386 1.083-2.386 2.419z"
       fill-rule="evenodd" /></svg>
  <svg width="24" height="24" id="maps-layers" y="0">
    <path d="M6.663 13.82L12.5 17l5.937-3.125L21 15.288 12.5 20 4 15.288l2.663-1.468zm-.393-3.085L12.571 14l6.175-3.256 1.98 1.09L12.5 16l-8.073-4.25 1.843-1.015zM12.5 4L21 8.684 19.094 9.74l-6.523 3.427L5.59 9.565 4 8.684 12.5 4z"
       fill-rule="evenodd" /></svg>
  <svg width="24" height="24" id="maps-location" y="0">
    <path d="M24 16.5V24h-4.5v-7.5H24zm-18 0V24H0v-7.5h6zm10.5 0V24h-9v-7.5h9zM6 10.5V15H0v-4.5h6zm1.5-4.62c1.248.651 2.496 1.503 3.753 2.615a20.029 20.029 0 005.247 3.382V15h-9zm12 7.006c1.392.335 2.826.52 4.31.52.063 0 .127-.005.19-.005V15h-4.5zM24 0v11.88a17.191 17.191 0 01-4.5-.55V0H24zm-7.5 0v10.215a18.778 18.778 0 01-4.253-2.844c-1.565-1.384-3.15-2.425-4.748-3.157V.001h9zM0 4.718a10.741 10.741 0 016 .49v3.794H0zM6 0v3.63a12.225 12.225 0 00-6-.445V0h6z"
       fill-rule="evenodd" /></svg>
  <svg width="24" height="24" id="maps-polygon" y="0">
    <path d="M17.274 20.683L6.439 18.518a3.365 3.365 0 01-3.076 1.988C1.506 20.506 0 19.01 0 17.165c0-1.846 1.506-3.342 3.363-3.342.403 0 .789.07 1.147.2l5.076-8.279a3.322 3.322 0 01-1.025-2.402C8.56 1.496 10.066 0 11.924 0c1.857 0 3.363 1.496 3.363 3.342a3.329 3.329 0 01-1.31 2.647l5.794 11.44c.276-.074.567-.113.866-.113 1.857 0 3.363 1.497 3.363 3.342C24 22.504 22.494 24 20.637 24c-1.849 0-3.35-1.483-3.363-3.317zm.27-1.34c.221-.512.566-.957.998-1.3L12.738 6.586a3.39 3.39 0 01-1.988-.11l-5.07 8.267a3.322 3.322 0 011.046 2.439l10.818 2.162z"
       fill-rule="evenodd" /></svg>
  <svg width="24" height="24" id="maps-radius" y="0">
    <path d="M12 2c5.52 0 10 4.48 10 10s-4.48 10-10 10S2 17.52 2 12 6.48 2 12 2zm0 2c-4.41 0-8 3.59-8 8s3.59 8 8 8l.249-.004C16.544 19.864 20 16.326 20 12c0-4.41-3.59-8-8-8zm0 5a3 3 0 110 6 3 3 0 010-6z"
       fill-rule="evenodd" /></svg>
  <svg width="24" height="24" id="maps-rotate" y="0">
    <path d="M4.356 16.276a7.81 7.81 0 01-1.124-2.5c-.61-2.434-.01-5.063 1.719-7.043l-.618-.78 3.713-.85-1.824 3.234-.553-.698c-1.874 2.307-2.045 5.535-.35 8.025l-.963.612zm15.277-.112l-.963-.61a6.684 6.684 0 00-.328-8.024l-.554.7L15.972 5l3.71.84-.62.782a7.782 7.782 0 01.57 9.542zM9.85 11.192c.837.351 1.54.648 2.208.934.03.012.064.012.093 0l1.013-.423 1.014-.424 1.06-.438L12.108 19l-.294-.767-.412-1.073a5707.21 5707.21 0 00-2.18-5.665l-.26-.67.888.367z"
       fill-rule="evenodd" /></svg>
</svg>
