<svg width="46" height="45" viewBox="0 0 46 45" fill="none" xmlns="http://www.w3.org/2000/svg">
<path d="M4.89637 35.5243L0.0333838 20.5276C-0.0635236 20.2305 0.0574104 19.8357 0.307287 19.6402L7.74033 13.7898C7.991 13.6024 8.3506 13.6512 8.53721 13.9051L14.0649 21.5303C14.2507 21.7834 14.2555 22.1927 14.0786 22.4586L5.40654 35.5963C5.23034 35.8542 5.0053 35.819 4.89637 35.5243Z" fill="#033871"/>
<path d="M29.4994 44.5355L19.6934 32.2379C19.498 31.9904 19.0943 31.8686 18.8028 31.9623L9.83525 34.856C9.53331 34.9529 9.37714 35.2724 9.48366 35.58L12.7385 44.4578C12.8554 44.7485 13.195 44.9832 13.4985 44.9832L29.2784 45C29.5907 44.9928 29.6965 44.7862 29.4994 44.5355Z" fill="#033871"/>
<path d="M45.4601 24.3806L30.7109 29.9172C30.4234 30.0277 30.1872 30.3609 30.1872 30.6716L30.1711 40.0852C30.1735 40.3984 30.4362 40.6515 30.7494 40.6451L40.2103 40.2855C40.521 40.2758 40.8486 40.0212 40.9399 39.7288L45.8237 24.7362C45.9222 24.4367 45.7572 24.2677 45.4601 24.3806Z" fill="#033871"/>
<path d="M31.2174 2.9787L31.9222 18.7137C31.9334 19.0277 32.18 19.3552 32.478 19.453L41.4351 22.381C41.7418 22.4683 42.0606 22.2929 42.1463 21.999L44.7292 12.8897C44.8149 12.5958 44.6763 12.1985 44.4304 12.0183L31.6651 2.74003C31.4072 2.55823 31.2038 2.66555 31.2174 2.9787Z" fill="#033871"/>
<path d="M6.45137 9.91537L21.6346 14.0992C21.9389 14.1801 22.3306 14.0504 22.514 13.8021L28.0625 6.18163C28.2419 5.92294 28.1787 5.57215 27.9104 5.39115L20.0553 0.126116C19.799 -0.0484779 19.3889 -0.0412709 19.1334 0.144535L6.36327 9.41001C6.10939 9.59501 6.14944 9.82647 6.45137 9.91537Z" fill="#033871"/>
</svg>
