<svg width="527" height="108" viewBox="0 0 527 108" fill="none" xmlns="http://www.w3.org/2000/svg">
<path d="M111.329 80.3896C113.556 80.3896 115.393 80.668 116.84 81.2246C118.299 81.7689 119.388 82.6038 120.105 83.7295C120.823 84.8551 121.182 86.29 121.182 88.0342C121.182 89.4691 120.922 90.6689 120.402 91.6338C119.883 92.5863 119.202 93.3594 118.361 93.9531C117.52 94.5469 116.623 95.0046 115.671 95.3262L123.111 107.517H119.438L112.795 96.1982H107.154V107.517H104V80.3896H111.329ZM111.144 83.1172H107.154V93.5264H111.459C113.673 93.5264 115.3 93.0749 116.339 92.1719C117.39 91.2689 117.916 89.9391 117.916 88.1826C117.916 86.3395 117.359 85.0345 116.246 84.2676C115.145 83.5007 113.444 83.1172 111.144 83.1172Z" fill="black"/>
<path d="M142.557 107.517H127.453V80.3896H142.557V83.1729H130.607V91.9492H141.87V94.6953H130.607V104.733H142.557V107.517Z" fill="black"/>
<path d="M165.583 107.517L162.243 98.9072H151.37L148.049 107.517H144.857L155.471 80.2783H158.31L168.849 107.517H165.583ZM161.297 96.1055L158.124 87.5518C158.05 87.3291 157.926 86.9642 157.753 86.457C157.592 85.9499 157.425 85.4242 157.252 84.8799C157.079 84.3356 156.937 83.8965 156.825 83.5625C156.701 84.0697 156.565 84.5768 156.417 85.084C156.281 85.5788 156.145 86.0426 156.009 86.4756C155.873 86.8962 155.755 87.2549 155.656 87.5518L152.428 96.1055H161.297Z" fill="black"/>
<path d="M172.615 107.517V80.3896H175.77V104.696H187.812V107.517H172.615Z" fill="black"/>
<path d="M224.314 107.517H209.211V80.3896H224.314V83.1729H212.365V91.9492H223.628V94.6953H212.365V104.733H224.314V107.517Z" fill="black"/>
<path d="M244.134 100.299C244.134 101.907 243.732 103.28 242.928 104.418C242.136 105.544 241.023 106.403 239.588 106.997C238.153 107.591 236.465 107.888 234.522 107.888C233.496 107.888 232.525 107.838 231.609 107.739C230.694 107.64 229.853 107.498 229.086 107.312C228.319 107.127 227.645 106.898 227.063 106.626V103.602C227.991 103.985 229.123 104.344 230.459 104.678C231.795 104.999 233.193 105.16 234.652 105.16C236.013 105.16 237.163 104.981 238.104 104.622C239.044 104.251 239.755 103.725 240.237 103.045C240.732 102.352 240.979 101.523 240.979 100.559C240.979 99.6309 240.775 98.8577 240.367 98.2393C239.959 97.6084 239.279 97.0394 238.326 96.5322C237.386 96.0127 236.1 95.4622 234.467 94.8809C233.316 94.4727 232.302 94.0273 231.424 93.5449C230.546 93.0501 229.81 92.4935 229.216 91.875C228.622 91.2565 228.171 90.5391 227.861 89.7227C227.564 88.9062 227.416 87.9723 227.416 86.9209C227.416 85.4736 227.781 84.2367 228.511 83.21C229.253 82.1709 230.273 81.3792 231.572 80.835C232.883 80.2783 234.386 80 236.081 80C237.528 80 238.864 80.1361 240.089 80.4082C241.326 80.6803 242.458 81.0452 243.484 81.5029L242.501 84.2119C241.524 83.8037 240.485 83.4635 239.384 83.1914C238.295 82.9193 237.17 82.7832 236.007 82.7832C234.844 82.7832 233.861 82.9564 233.057 83.3027C232.265 83.6367 231.659 84.113 231.238 84.7314C230.818 85.3499 230.607 86.0859 230.607 86.9395C230.607 87.8919 230.805 88.6836 231.201 89.3145C231.609 89.9453 232.253 90.5081 233.131 91.0029C234.021 91.4854 235.197 91.9925 236.656 92.5244C238.252 93.1058 239.606 93.7243 240.72 94.3799C241.833 95.0231 242.68 95.8148 243.262 96.7549C243.843 97.6826 244.134 98.8639 244.134 100.299Z" fill="black"/>
<path d="M256.513 107.517H253.34V83.1729H244.805V80.3896H265.011V83.1729H256.513V107.517Z" fill="black"/>
<path d="M284.626 107.517L281.286 98.9072H270.413L267.092 107.517H263.9L274.514 80.2783H277.353L287.892 107.517H284.626ZM280.34 96.1055L277.167 87.5518C277.093 87.3291 276.969 86.9642 276.796 86.457C276.635 85.9499 276.468 85.4242 276.295 84.8799C276.122 84.3356 275.979 83.8965 275.868 83.5625C275.744 84.0697 275.608 84.5768 275.46 85.084C275.324 85.5788 275.188 86.0426 275.052 86.4756C274.916 86.8962 274.798 87.2549 274.699 87.5518L271.471 96.1055H280.34Z" fill="black"/>
<path d="M298.489 107.517H295.316V83.1729H286.781V80.3896H306.987V83.1729H298.489V107.517Z" fill="black"/>
<path d="M324.691 107.517H309.588V80.3896H324.691V83.1729H312.742V91.9492H324.005V94.6953H312.742V104.733H324.691V107.517Z" fill="black"/>
<path d="M350.505 107.517L341.395 83.5068H341.246C341.296 84.014 341.339 84.6325 341.376 85.3623C341.413 86.0921 341.444 86.89 341.469 87.7559C341.493 88.6094 341.506 89.4814 341.506 90.3721V107.517H338.574V80.3896H343.25L351.841 102.952H351.971L360.691 80.3896H365.33V107.517H362.213V90.1494C362.213 89.3454 362.225 88.5413 362.25 87.7373C362.275 86.9209 362.306 86.154 362.343 85.4365C362.38 84.7067 362.417 84.0758 362.454 83.5439H362.306L353.084 107.517H350.505Z" fill="black"/>
<path d="M391.267 107.517L387.927 98.9072H377.054L373.732 107.517H370.541L381.154 80.2783H383.993L394.532 107.517H391.267ZM386.98 96.1055L383.808 87.5518C383.733 87.3291 383.61 86.9642 383.437 86.457C383.276 85.9499 383.109 85.4242 382.936 84.8799C382.762 84.3356 382.62 83.8965 382.509 83.5625C382.385 84.0697 382.249 84.5768 382.101 85.084C381.965 85.5788 381.828 86.0426 381.692 86.4756C381.556 86.8962 381.439 87.2549 381.34 87.5518L378.111 96.1055H386.98Z" fill="black"/>
<path d="M421.007 107.517H417.37L402.582 84.7314H402.434C402.471 85.3376 402.514 86.0303 402.563 86.8096C402.613 87.5765 402.65 88.3991 402.675 89.2773C402.712 90.1432 402.73 91.0277 402.73 91.9307V107.517H399.799V80.3896H403.417L418.149 103.101H418.279C418.255 102.668 418.224 102.055 418.187 101.264C418.149 100.46 418.112 99.5999 418.075 98.6846C418.05 97.7568 418.038 96.8971 418.038 96.1055V80.3896H421.007V107.517Z" fill="black"/>
<path d="M446.925 107.517L443.585 98.9072H432.712L429.391 107.517H426.199L436.812 80.2783H439.651L450.19 107.517H446.925ZM442.639 96.1055L439.466 87.5518C439.392 87.3291 439.268 86.9642 439.095 86.457C438.934 85.9499 438.767 85.4242 438.594 84.8799C438.421 84.3356 438.278 83.8965 438.167 83.5625C438.043 84.0697 437.907 84.5768 437.759 85.084C437.623 85.5788 437.487 86.0426 437.351 86.4756C437.215 86.8962 437.097 87.2549 436.998 87.5518L433.77 96.1055H442.639Z" fill="black"/>
<path d="M467.054 93.3037H476.535V106.459C475.113 106.941 473.647 107.3 472.138 107.535C470.641 107.77 468.965 107.888 467.109 107.888C464.289 107.888 461.908 107.325 459.966 106.199C458.036 105.074 456.57 103.472 455.568 101.394C454.566 99.3031 454.065 96.8229 454.065 93.9531C454.065 91.1452 454.616 88.696 455.717 86.6055C456.83 84.515 458.432 82.8945 460.522 81.7441C462.625 80.5814 465.149 80 468.093 80C469.602 80 471.031 80.1423 472.379 80.4268C473.74 80.6989 475.001 81.0885 476.164 81.5957L474.958 84.3418C473.956 83.9089 472.849 83.5378 471.637 83.2285C470.437 82.9193 469.194 82.7646 467.907 82.7646C465.693 82.7646 463.794 83.2223 462.211 84.1377C460.64 85.0531 459.434 86.3457 458.593 88.0156C457.764 89.6855 457.35 91.6647 457.35 93.9531C457.35 96.2168 457.715 98.1898 458.444 99.8721C459.174 101.542 460.312 102.841 461.858 103.769C463.405 104.696 465.396 105.16 467.833 105.16C469.058 105.16 470.109 105.092 470.987 104.956C471.866 104.808 472.663 104.634 473.381 104.437V96.124H467.054V93.3037Z" fill="black"/>
<path d="M499.707 107.517H484.604V80.3896H499.707V83.1729H487.758V91.9492H499.021V94.6953H487.758V104.733H499.707V107.517Z" fill="black"/>
<path d="M514.548 80.3896C516.774 80.3896 518.611 80.668 520.059 81.2246C521.518 81.7689 522.607 82.6038 523.324 83.7295C524.042 84.8551 524.4 86.29 524.4 88.0342C524.4 89.4691 524.141 90.6689 523.621 91.6338C523.102 92.5863 522.421 93.3594 521.58 93.9531C520.739 94.5469 519.842 95.0046 518.89 95.3262L526.33 107.517H522.656L516.014 96.1982H510.373V107.517H507.219V80.3896H514.548ZM514.362 83.1172H510.373V93.5264H514.678C516.892 93.5264 518.519 93.0749 519.558 92.1719C520.609 91.2689 521.135 89.9391 521.135 88.1826C521.135 86.3395 520.578 85.0345 519.465 84.2676C518.364 83.5007 516.663 83.1172 514.362 83.1172Z" fill="black"/>
<path d="M250.476 41.7848C252.838 37.6248 255.27 34.1594 258.916 34.1594C260.108 34.1594 260.535 34.4994 261.54 34.8954V39.0874H259.127C255.934 39.0874 253.484 40.2981 250.462 44.1941V56.2021C250.462 58.6808 251.468 58.8274 255.495 59.2274V61.2301H241.392V59.2274C243.408 58.9408 245.426 58.6808 245.426 56.3941V39.6461L241.392 37.8941V36.6941L248.984 34.0514H250.731L250.476 41.7848ZM230.315 54.9968V47.5968L221.714 50.3474C219.959 50.8848 219.028 51.8928 219.028 53.7981C219.028 56.6434 220.734 58.0848 223.479 58.0848C226.428 58.0848 228.298 56.7901 230.315 54.9968M235.348 54.7874C235.348 56.9861 236.318 58.1781 237.831 58.1781C238.156 58.1781 238.862 58.1208 239.488 58.0168C239.656 58.5341 240.011 59.3421 240.14 59.7168C238.564 61.0941 237.102 61.6821 235.424 61.6821C232.834 61.6821 231.539 59.8634 230.728 57.1488C228.883 59.1768 226.038 61.6821 221.387 61.6821C216.444 61.6821 213.794 58.7274 213.794 54.8581C213.794 50.1928 216.964 49.0941 220.818 48.0034L230.315 45.1448V44.1021C230.315 39.9928 228.559 36.8021 224.25 36.8021C221.452 36.8021 220.184 37.9554 220.184 40.4954C220.184 41.0061 220.311 41.8954 220.463 42.8968L216.32 43.3928C215.626 42.6994 215.238 41.8954 215.238 40.7048C215.238 36.5914 219.623 34.1968 225.214 34.1968C231.364 34.1968 235.348 36.7514 235.348 43.8034V54.7874ZM204.127 35.0594H212.183V37.0728H204.127V52.9234C204.127 56.5128 205.568 58.1128 208.627 58.1128C209.772 58.1128 210.836 57.9261 211.971 57.4741C212.195 58.0581 212.428 58.5501 212.658 59.0474C211.332 60.3208 209.299 61.6821 206.266 61.6821C202.479 61.6821 199.09 59.7288 199.09 54.5968V37.0728H195.062V35.7021C198.084 34.0994 199.871 32.0354 202.43 29.0141H204.127V35.0594ZM167.299 58.3968L166.908 49.1594H168.754C170.29 54.1994 173.699 58.8341 179.598 58.8341C185.094 58.8341 188.782 56.2061 188.782 51.8981C188.782 48.0968 185.791 46.4208 181.643 44.7634L176.198 42.6048C171.396 40.7194 167.299 38.5021 167.299 32.2034C167.299 26.7648 172.923 21.7128 180.676 21.7128C185.184 21.7128 189.018 23.0034 192.039 25.0048V33.0448H190.148C188.848 28.0074 185.923 24.4234 180.102 24.4234C175.456 24.4234 172.01 26.9834 172.01 30.9848C172.01 34.2861 174.296 35.8408 178.148 37.3448L183.992 39.6634C189.539 41.8661 193.539 44.0888 193.539 50.5274C193.539 57.6834 186.912 61.7274 178.799 61.7274C174.015 61.7274 169.796 60.4248 167.299 58.3968M158.49 49.1701C158.49 42.7088 154.983 37.3101 148.976 37.3101C143.962 37.3101 141.475 41.3008 141.475 46.7594C141.475 53.2194 144.972 58.5994 150.975 58.5994C155.979 58.5994 158.49 54.6221 158.49 49.1701M136.156 48.4648C136.156 39.7008 142.758 34.1968 150.476 34.1968C158.386 34.1968 163.792 39.7568 163.792 47.4621C163.792 56.2301 157.183 61.7181 149.478 61.7181C141.562 61.7181 136.156 56.1834 136.156 48.4648M131.03 49.1594H133.015L131.972 58.6381C127.984 60.3888 123.639 61.6621 117.464 61.6621C105.026 61.6621 97.7085 52.5354 97.7085 42.4394C97.7085 29.6888 106.802 21.7034 117.939 21.7034C124.694 21.7034 128.719 23.8528 131.062 25.3008L131.347 34.0514H129.459C127.203 26.9994 123.354 25.0501 117.614 25.0501C107.608 25.0501 103.976 32.0234 103.976 40.5234C103.976 49.7768 108.383 58.6568 118.523 58.6568C125.927 58.6568 128.784 55.2048 131.03 49.1594M278.955 39.9354H278.591L276.334 36.1514V41.2128H275.784V34.8168H276.15L278.775 39.2128L281.395 34.8168H281.764V41.2128H281.214V36.1514L278.955 39.9354ZM274.864 34.8168V35.3381H273.035V41.2128H272.486V35.3381H270.659V34.8168H274.864Z" fill="black"/>
<path d="M8.77804 59.8992L0.682043 34.9326C0.520709 34.4379 0.722043 33.7806 1.13804 33.4553L13.5127 23.7153C13.93 23.4033 14.5287 23.4846 14.8394 23.9073L24.042 36.6019C24.3514 37.0233 24.3594 37.7046 24.0647 38.1473L9.62738 60.0192C9.33404 60.4486 8.95938 60.3899 8.77804 59.8992Z" fill="#1E3A6F"/>
<path d="M49.7377 74.9013L33.4124 54.428C33.087 54.016 32.415 53.8133 31.9297 53.9693L17.0004 58.7867C16.4977 58.948 16.2377 59.48 16.415 59.992L21.8337 74.772C22.0284 75.256 22.5937 75.6467 23.099 75.6467L49.3697 75.6747C49.8897 75.6627 50.0657 75.3187 49.7377 74.9013Z" fill="#1E3A6F"/>
<path d="M76.3093 41.3472L51.7546 50.5645C51.276 50.7485 50.8826 51.3032 50.8826 51.8205L50.856 67.4925C50.86 68.0138 51.2973 68.4352 51.8186 68.4245L67.5693 67.8258C68.0866 67.8098 68.632 67.3858 68.784 66.8991L76.9146 41.9392C77.0786 41.4405 76.804 41.1592 76.3093 41.3472Z" fill="#1E3A6F"/>
<path d="M52.5978 5.7168L53.7711 31.9128C53.7898 32.4355 54.2004 32.9808 54.6964 33.1435L69.6084 38.0181C70.1191 38.1635 70.6498 37.8715 70.7924 37.3821L75.0924 22.2168C75.2351 21.7275 75.0044 21.0661 74.5951 20.7661L53.3431 5.31947C52.9138 5.0168 52.5751 5.19547 52.5978 5.7168Z" fill="#1E3A6F"/>
<path d="M11.3668 17.2651L36.6442 24.2304C37.1508 24.3651 37.8028 24.1491 38.1082 23.7358L47.3455 11.0491C47.6442 10.6184 47.5388 10.0344 47.0922 9.7331L34.0148 0.967773C33.5882 0.677106 32.9055 0.689104 32.4802 0.998438L11.2202 16.4238C10.7975 16.7318 10.8642 17.1171 11.3668 17.2651Z" fill="#1E3A6F"/>
</svg>
